<?xml version="1.0" encoding="utf-8"?>
<!-- Generator: Adobe Illustrator 23.0.1, SVG Export Plug-In . SVG Version: 6.00 Build 0)  -->
<svg version="1.1" xmlns="http://www.w3.org/2000/svg" xmlns:xlink="http://www.w3.org/1999/xlink" x="0px" y="0px"
	 viewBox="0 0 546 449" style="enable-background:new 0 0 546 449;" xml:space="preserve">
<style type="text/css">
	.st0{fill:#879A5D;}
	.st1{fill:#706466;}
	.st2{fill:#6F804A;}
	.st3{fill:#A7BA73;}
	.st4{fill:#BCCC83;}
	.st5{fill:#E8A18C;}
	.st6{fill:#F4B199;}
	.st7{fill:#F7EAE7;}
	.st8{fill:#514C4A;}
	.st9{fill:#BA5B5B;}
	.st10{fill:#A14F4F;}
	.st11{fill:#F5B29A;}
	.st12{fill:#CE807B;}
	.st13{fill:#9E6F68;}
	.st14{fill:#D3837B;}
	.st15{fill:#5E5254;}
	.st16{fill:#D4847C;}
	.st17{fill:#F1EEF5;}
	.st18{fill:#8C5D5B;}
	.st19{fill:#CCB9B6;}
	.st20{fill:#FFC973;}
	.st21{fill:#E7AB68;}
	.st22{fill:#FFEAA6;}
	.st23{opacity:0.3;fill:#AD4E4E;}
	.st24{fill:#44403E;}
	.st25{fill:#605B58;}
	.st26{fill:#A8A8A8;}
	.st27{fill:#969696;}
	.st28{fill:#E0E0E0;}
	.st29{fill:#918D8B;}
</style>
<g id="Layer_2">
	<g>
		<g>
			<path class="st0" d="M308.5,294.61c-16.7-11.36-26.06-22.57-29.99-54.82c-2.84-23.29,4.2-45.65,6.64-68.57
				c1.69-15.94,8.15-83.48,25.73-79.88C346.09,98.55,364.03,298.93,308.5,294.61z"/>
			<g>
				<path class="st1" d="M308.6,218.52c0,0,0.5,10.26,1.26,25.65c0.99,15.4,1.22,35.91,1.66,56.43
					c0.83,41.03,1.66,132.96,1.66,132.96l-4.71-0.05c0,0-0.77-91.93-1.55-132.96c-0.37-20.52-0.94-41.04-0.55-56.42
					c0.16-15.38,0.26-25.64,0.26-25.64L308.6,218.52z"/>
				<polygon class="st1" points="297.7,245.67 309.43,267.7 306.62,269.04 296.5,246.25 				"/>
				<path class="st1" d="M307.94,282.02c3.11-6.03,7.85-12.08,13.66-15.44l1.11,0.9c0,0-4.11,3.1-7.08,7.22
					c-3.1,4.06-4.86,8.79-4.86,8.79L307.94,282.02z"/>
			</g>
			<g>
				<path class="st2" d="M331.78,141.5c-0.7,0-1.32-0.48-1.47-1.19c-3.22-15.02-12.71-42.5-21.06-41.15
					c-0.82,0.13-1.6-0.43-1.73-1.25c-0.13-0.82,0.42-1.6,1.25-1.73c14.5-2.36,24.4,43.04,24.5,43.49c0.17,0.81-0.34,1.62-1.16,1.79
					C331.99,141.49,331.88,141.5,331.78,141.5z"/>
			</g>
			<g>
				<path class="st2" d="M334.95,156.76c-0.73,0-1.37-0.53-1.49-1.27l-1.25-7.77c-0.13-0.82,0.43-1.6,1.25-1.73
					c0.82-0.13,1.6,0.43,1.73,1.25l1.25,7.77c0.13,0.82-0.43,1.6-1.25,1.73C335.11,156.75,335.03,156.76,334.95,156.76z"/>
			</g>
			<g>
				<path class="st2" d="M325.49,279.42c-0.27,0-0.55-0.07-0.8-0.23c-0.71-0.44-0.92-1.37-0.48-2.08
					c7.54-12.07,11.69-26.71,11.67-41.22c0-0.83,0.67-1.51,1.51-1.51c0,0,0,0,0,0c0.83,0,1.51,0.67,1.51,1.51
					c0.02,15.07-4.29,30.27-12.13,42.82C326.48,279.17,325.99,279.42,325.49,279.42z"/>
			</g>
			<g>
				<path class="st2" d="M286.09,256.7c-0.66,0-1.27-0.44-1.45-1.11c-3.85-14.03-4.94-28.99-3.16-43.27
					c0.1-0.83,0.86-1.41,1.68-1.31c0.83,0.1,1.41,0.86,1.31,1.68c-1.74,13.88-0.67,28.44,3.07,42.09c0.22,0.8-0.25,1.63-1.06,1.85
					C286.36,256.68,286.22,256.7,286.09,256.7z"/>
			</g>
		</g>
		<g>
			<path class="st3" d="M359.12,39.54c-17.74-2.81-23.87,44.83-27.65,60.94c-6.71,28.59-14.43,74-12.19,112.15
				c1.8,30.63,8.29,53.94,35.02,77.88c23.06-19.33,34.61-24.39,37.46-81.46C393.76,168.82,383.7,43.43,359.12,39.54z"/>
			<g>
				<path class="st1" d="M353.34,184.91c0,0,1.2,11.55,1.75,28.9c0.65,17.34,0.69,40.48,1.11,63.61c0.3,23.13,0.59,97.16,0.82,114.5
					c0.05,17.35,0.08,28.92,0.08,28.92l-4.83,0.06c0,0-0.25-11.56-0.63-28.91c-0.21-17.35-0.49-91.37-0.77-114.51
					c-0.16-23.13-0.69-46.26-0.47-63.62c0.12-17.35,1.03-28.93,1.03-28.93L353.34,184.91z"/>
				<path class="st1" d="M341.37,201.17c0,0,4.4,4.66,7.71,10.15c3.41,5.44,5.78,11.42,5.78,11.42l-3.01,1.13
					c0,0-1.92-5.89-4.89-11.32c-2.87-5.5-6.87-10.28-6.87-10.28L341.37,201.17z"/>
				<path class="st1" d="M353.03,263.03c0,0,2.91-7.36,6.88-14.17c3.87-6.89,8.87-12.99,8.87-12.99l1.21,0.93c0,0-4.59,6.26-8,13.19
					c-3.52,6.88-5.96,14.2-5.96,14.2L353.03,263.03z"/>
			</g>
			<g>
				<path class="st0" d="M375.79,95.2c-0.65,0-1.23-0.46-1.36-1.13c-0.25-1.3-0.49-2.58-0.73-3.87
					c-2.05-10.93-3.99-21.25-8.12-31.56c-1.89-4.73-5.07-10.28-9.41-9.88c-0.76,0.07-1.44-0.49-1.51-1.25
					c-0.07-0.76,0.49-1.44,1.25-1.51c4.86-0.45,8.98,3.46,12.24,11.61c4.23,10.57,6.19,21.02,8.27,32.08
					c0.24,1.28,0.48,2.57,0.73,3.86c0.14,0.75-0.35,1.48-1.1,1.62C375.96,95.19,375.87,95.2,375.79,95.2z"/>
			</g>
			<g>
				<path class="st0" d="M380.49,122.95c-0.67,0-1.25-0.48-1.37-1.16l-2.25-13.52c-0.13-0.75,0.38-1.47,1.14-1.59
					c0.75-0.13,1.47,0.38,1.59,1.14l2.25,13.52c0.13,0.75-0.38,1.47-1.14,1.59C380.64,122.94,380.56,122.95,380.49,122.95z"/>
			</g>
			<g>
				<path class="st0" d="M366.89,271.82c-0.28,0-0.57-0.09-0.82-0.27c-0.62-0.45-0.75-1.32-0.3-1.94
					c13.93-19.01,20.26-43.34,17.36-66.73c-0.09-0.76,0.45-1.45,1.2-1.55c0.76-0.09,1.45,0.45,1.55,1.2
					c2.99,24.09-3.53,49.13-17.87,68.71C367.74,271.63,367.32,271.82,366.89,271.82z"/>
			</g>
			<g>
				<path class="st0" d="M333.01,250.5c-0.57,0-1.1-0.35-1.3-0.92c-4.36-12.1-6.85-24.7-7.41-37.47c-0.03-0.76,0.56-1.41,1.32-1.44
					c0.76-0.03,1.41,0.56,1.44,1.32c0.54,12.49,2.98,24.82,7.24,36.66c0.26,0.72-0.11,1.51-0.83,1.77
					C333.33,250.47,333.17,250.5,333.01,250.5z"/>
			</g>
			<g>
				<path class="st0" d="M325.2,202.93c-0.77,0-1.39-0.62-1.39-1.39v-10.89c0-0.77,0.62-1.39,1.39-1.39s1.39,0.62,1.39,1.39v10.89
					C326.58,202.31,325.96,202.93,325.2,202.93z"/>
			</g>
		</g>
	</g>
</g>
<g id="Layer_3">
	<ellipse class="st4" cx="284" cy="427.86" rx="250" ry="6.72"/>
	<g>
		<path class="st0" d="M72.99,425.56c0,0,3.96-15.82,24.72-21.76c20.77-5.93,34.66-1.88,34.66-1.88s-3.02-28.78,24.67-37.68
			c27.69-8.9,42.03,1.79,42.03,1.79s-2.47-13.66,7.42-19.59c9.89-5.93,16.81,0,16.81,0s22.75-24.72,61.32-10.88
			c38.57,13.85,49.45,57.36,49.45,57.36s6.92-7.91,24.72-2.97c17.8,4.94,20.77,19.78,20.77,19.78s7.27-9.53,24.4-8.22
			c17.13,1.3,27.02,22.07,27.02,22.07L72.99,425.56z"/>
		<g>
			<g>
				<path class="st2" d="M211.75,377.08c-0.28,0-0.55-0.09-0.79-0.28c-3.86-3.09-6.31-7.88-6.55-12.82
					c-0.24-4.94,1.72-9.95,5.26-13.4c0.5-0.49,1.29-0.48,1.78,0.02c0.49,0.5,0.48,1.29-0.02,1.78c-3.03,2.96-4.72,7.25-4.51,11.48
					c0.21,4.23,2.31,8.33,5.61,10.98c0.54,0.43,0.63,1.23,0.2,1.77C212.48,376.92,212.11,377.08,211.75,377.08z"/>
			</g>
			<g>
				<path class="st2" d="M224.1,360.14c-0.27,0-0.55-0.09-0.78-0.27c-0.55-0.43-0.64-1.22-0.21-1.77
					c6.62-8.38,15.93-14.58,26.22-17.46c10.28-2.88,21.46-2.43,31.47,1.27c0.65,0.24,0.98,0.97,0.74,1.62
					c-0.24,0.65-0.96,0.98-1.62,0.74c-9.52-3.52-20.14-3.95-29.92-1.21c-9.77,2.74-18.62,8.64-24.92,16.6
					C224.84,359.98,224.47,360.14,224.1,360.14z"/>
			</g>
			<g>
				<path class="st2" d="M141.47,403.78c-0.64,0-1.19-0.49-1.25-1.15c-0.78-8.75,2.21-17.9,8.02-24.48
					c5.81-6.59,14.51-10.71,23.28-11.03c0.69-0.03,1.28,0.52,1.3,1.21c0.03,0.69-0.52,1.28-1.21,1.3
					c-8.1,0.29-16.13,4.1-21.49,10.18c-5.36,6.08-8.12,14.52-7.4,22.6c0.06,0.69-0.45,1.3-1.14,1.37
					C141.54,403.78,141.51,403.78,141.47,403.78z"/>
			</g>
			<g>
				<path class="st2" d="M146.38,417.74c-0.29,0-0.59-0.1-0.82-0.31c-2.52-2.18-4.22-5.19-4.8-8.48c-0.12-0.68,0.34-1.34,1.02-1.46
					c0.68-0.12,1.34,0.34,1.46,1.02c0.47,2.68,1.92,5.23,3.97,7.01c0.52,0.46,0.58,1.25,0.13,1.78
					C147.08,417.59,146.73,417.74,146.38,417.74z"/>
			</g>
			<g>
				<path class="st2" d="M81.9,426.34c-0.18,0-0.36-0.04-0.53-0.12c-0.63-0.3-0.9-1.05-0.6-1.67c5.35-11.39,18.34-18.88,30.88-17.8
					c0.69,0.06,1.21,0.67,1.15,1.36c-0.06,0.69-0.67,1.21-1.36,1.15c-11.52-0.99-23.47,5.89-28.39,16.37
					C82.83,426.08,82.38,426.34,81.9,426.34z"/>
			</g>
			<g>
				<path class="st2" d="M199.62,422.98c-0.09,0-0.19-0.01-0.28-0.03c-0.68-0.15-1.1-0.83-0.95-1.51
					c2.95-13.02,11.11-24.58,22.4-31.71c11.29-7.13,25.23-9.54,38.26-6.61c0.68,0.15,1.1,0.83,0.95,1.5s-0.83,1.11-1.5,0.95
					c-12.38-2.78-25.63-0.49-36.36,6.28c-10.73,6.78-18.49,17.76-21.29,30.14C200.71,422.58,200.19,422.98,199.62,422.98z"/>
			</g>
			<g>
				<path class="st2" d="M203.82,399.11c-0.14,0-0.29-0.02-0.43-0.08c-0.65-0.24-0.99-0.96-0.76-1.61c1.81-5,5.52-9.32,10.18-11.87
					c0.61-0.33,1.37-0.11,1.71,0.5c0.33,0.61,0.11,1.37-0.5,1.71c-4.13,2.26-7.42,6.09-9.02,10.52
					C204.82,398.8,204.33,399.11,203.82,399.11z"/>
			</g>
			<g>
				<path class="st2" d="M330.67,410.64c-0.11,0-0.22-0.01-0.34-0.05c-0.67-0.19-1.06-0.88-0.88-1.55
					c1.43-5.17,4.93-9.67,9.58-12.34c4.65-2.67,10.3-3.42,15.49-2.05c0.67,0.18,1.07,0.87,0.9,1.54c-0.18,0.67-0.86,1.07-1.54,0.9
					c-4.55-1.2-9.51-0.54-13.59,1.8c-4.08,2.34-7.15,6.29-8.41,10.83C331.72,410.27,331.22,410.64,330.67,410.64z"/>
			</g>
			<g>
				<path class="st2" d="M323.45,418.97c-0.41,0-0.81-0.2-1.05-0.56c-2.61-3.94-1.85-9.69,1.68-12.83c0.52-0.46,1.31-0.41,1.78,0.11
					c0.46,0.52,0.41,1.32-0.11,1.78c-2.59,2.3-3.16,6.67-1.25,9.56c0.38,0.58,0.22,1.36-0.36,1.74
					C323.93,418.9,323.69,418.97,323.45,418.97z"/>
			</g>
		</g>
	</g>
</g>
<g id="Layer_4">
	<g>
		<g>
			<path class="st5" d="M385.94,249.86c-2.23,0.94-7.36,2.35-9.97,3.05c-3.73,1.01-5.13,7.59-5,9.31c0.31,4.04,6.65,6.66,8.09,5.34
				c1.56-1.42-0.23-1.07-2.24-2.89c-2.02-1.82-0.25-3.82,2.62-3.23c1.72,0.35,5.77,0.13,9.55-0.76
				C392.07,259.98,387.84,249.07,385.94,249.86z"/>
			<path class="st5" d="M411.79,195.81c-1.37,10.54-2.33,18.21-5.54,30.12c-2.23,8.29-23.21,25.92-23.21,25.92l3.44,9.39
				c0,0,31.11-4.96,37.98-30.16c7.41-27.17,6.49-36.57,6.49-36.57L411.79,195.81z"/>
			<path class="st6" d="M391.56,250.13c-2.23,0.94-6.68,2.12-9.28,2.82c-3.73,1.01-5.13,7.59-5,9.31c0.31,4.04,6.65,6.66,8.09,5.34
				c1.56-1.42-0.23-1.07-2.24-2.89s-0.25-3.82,2.62-3.23c1.72,0.35,5.77,0.13,9.55-0.76C398.37,260.02,393.46,249.33,391.56,250.13z
				"/>
			<path class="st7" d="M428.32,155.78c-7.56,3.32-17.29,12.08-22.1,40.56c0,0,8.48,5.73,18.55,2.98L428.32,155.78z"/>
			<path class="st8" d="M410.54,413.2c-1.37,2.57-2.74,4.73-5.83,5.32c-3.09,0.6-11.69-0.11-12.54,1.77
				c-0.69,1.53,6.57,3.58,12.73,5.12c5.17,1.29,9.29,2.35,9.96,1.22c1.87-3.17,0.85-8.5,2.42-12.07L410.54,413.2z"/>
			<path class="st8" d="M495.25,410.49c1.43,2.59,3.61,5.83,1.33,8.09c-2.27,2.26-9.84,6.55-9.56,8.61
				c0.22,1.67,7.37-0.73,13.34-2.94c5.01-1.85,9.01-3.31,8.97-4.64c-0.1-3.72-7.47-11.19-9.62-14.48L495.25,410.49z"/>
			<path class="st7" d="M467.14,156.93c0,0-3.2-2.61-18.89-3.54c-9.62-0.57-15.03,1.03-15.03,1.03s-8.68,2.06-11.2,18.44
				c-1.7,11.05,1.57,20.74,1.57,20.74l33.18,5.02c0,0,0.07-21.4,3.59-28.98C464.12,161.56,467.14,156.93,467.14,156.93z"/>
			<path class="st9" d="M463.25,155.19c14.35,1.22,15.35,21.68,15.35,36.34s-3.56,38.62-1.3,45.32c4.71,14.03,6.91,28.93,7.78,41.66
				c0.75,11,1.73,41.47,3.38,46.79c2.44,7.9,13.37,36.75,20.96,81.62c0,0-5.38,9.09-21.23,7.81L455.46,334l-6.41-28.56l-7.1,26.95
				c-2.88,25.19-4.34,45.59-17.5,82.63c0,0-14.59,1.27-20.93-6.02c0,0,5.45-72.02,6.82-82.56c0.99-7.58,10.99-64.59,10.91-90.11
				c-0.04-11.02-4.84-39.23-3.04-55.64c1.87-17.1,7.48-23.21,10.12-24.91s5.61-1.58,5.61-1.58s-7.15,2.94-9.39,12.83
				c-2.76,12.19-2.37,15.35-2.37,15.35l22.91,0.61c0,0,2.14-7.94,6.26-15.42C457.6,154.42,463.25,155.19,463.25,155.19z"/>
			<g>
				<path class="st10" d="M435.61,274.59c-0.03,0-0.06,0-0.09-0.01c-0.33-0.05-0.55-0.36-0.5-0.69c1.19-7.49,2.66-26.82,2.35-33.61
					c-0.02-0.33,0.24-0.61,0.57-0.63c0.32-0.02,0.61,0.24,0.63,0.57c0.31,6.85-1.17,26.31-2.37,33.85
					C436.16,274.38,435.9,274.59,435.61,274.59z"/>
			</g>
			<g>
				<path class="st10" d="M444.78,241.21c-1.05,0-2.08-0.03-3.06-0.1c-13.86-0.99-20.04-5.33-20.29-5.52
					c-0.27-0.19-0.33-0.57-0.14-0.84c0.19-0.27,0.57-0.33,0.84-0.14c0.06,0.04,6.2,4.34,19.67,5.29c13.57,0.96,34.19-5.32,34.4-5.39
					c0.33-0.1,0.66,0.08,0.75,0.4c0.1,0.32-0.08,0.66-0.4,0.75C476.36,235.74,458.4,241.21,444.78,241.21z"/>
			</g>
			<g>
				<path class="st10" d="M444.24,236.08c-1.05,0-2.08-0.03-3.06-0.1c-13.86-0.99-20.04-5.33-20.29-5.52
					c-0.27-0.19-0.33-0.57-0.14-0.84c0.19-0.27,0.57-0.33,0.84-0.14c0.06,0.04,6.2,4.34,19.67,5.29c13.57,0.97,34.19-5.32,34.4-5.39
					c0.32-0.1,0.66,0.08,0.75,0.4c0.1,0.32-0.08,0.66-0.4,0.75C475.82,230.6,457.85,236.08,444.24,236.08z"/>
			</g>
			<path class="st11" d="M448.59,197.95c0,0-5.25,16.51-14.79,26.3c-6.6,6.77-25.75,17.67-42.36,25.91l3.74,10.61
				c20.19-5.12,32.98-9.1,51.72-21.99c15.11-10.39,22.48-37.3,22.48-37.3L448.59,197.95z"/>
			<g>
				<path class="st12" d="M382.31,263.27c-0.08,0-0.16-0.02-0.24-0.06c-0.24-0.13-0.34-0.43-0.21-0.68
					c0.84-1.57,1.76-1.53,3.79-1.46c0.66,0.02,1.48,0.06,2.49,0.05c4-0.04,6.87-0.81,6.9-0.82c19.42-4.92,32.58-8.85,51.57-21.92
					c14.79-10.17,22.21-36.75,22.28-37.02c0.07-0.27,0.35-0.42,0.62-0.35c0.27,0.07,0.42,0.35,0.35,0.62
					c-0.07,0.27-7.59,27.2-22.68,37.58c-19.14,13.16-32.37,17.12-51.89,22.06c-0.11,0.03-3,0.82-7.15,0.86
					c-1.04,0.01-1.87-0.02-2.54-0.05c-2.06-0.08-2.34-0.05-2.86,0.93C382.67,263.17,382.49,263.27,382.31,263.27z"/>
			</g>
			<g>
				<path class="st10" d="M443.84,278.11c-0.06,0-0.12-0.01-0.18-0.03c-0.07-0.02-7.01-2.15-11.69-4.48
					c-0.3-0.15-0.42-0.51-0.27-0.81c0.15-0.3,0.51-0.42,0.81-0.27c4.58,2.28,11.43,4.38,11.5,4.4c0.32,0.1,0.5,0.43,0.4,0.75
					C444.34,277.95,444.1,278.11,443.84,278.11z"/>
			</g>
			<g>
				<path class="st10" d="M431.21,205.97c-2.31,0-4.27-0.8-5.81-2.37c-4.87-4.96-4.05-15.94-4.01-16.4c0.03-0.32,0.3-0.55,0.61-0.55
					l22.08,0.39c0.33,0.01,0.59,0.27,0.59,0.6c0,0.18-0.12,17.53-12.8,18.32C431.64,205.97,431.42,205.97,431.21,205.97z
					 M422.55,187.86c-0.1,2.29-0.19,10.93,3.7,14.9c1.44,1.46,3.3,2.13,5.53,1.99c10.29-0.64,11.51-13.58,11.66-16.52L422.55,187.86
					z"/>
			</g>
			<g>
				<path class="st10" d="M483.81,274.11c-0.01,0-0.02,0-0.03,0c-16.02-0.68-18.08-24.65-18.1-24.89c-0.02-0.31,0.19-0.59,0.5-0.64
					l13.32-2.33c0.33-0.06,0.64,0.16,0.7,0.49c0.06,0.33-0.16,0.64-0.49,0.7l-12.76,2.24c0.4,3.5,3.24,22.65,16.89,23.23
					c0.33,0.01,0.59,0.3,0.58,0.63C484.4,273.86,484.13,274.11,483.81,274.11z"/>
			</g>
			<path class="st7" d="M471.8,206.65c0,0-17.1,1.99-26.95-6.95c0,0,9.01-41.84,21.15-41.46
				C469.51,158.24,483.48,166.33,471.8,206.65z"/>
			<g>
				<path class="st12" d="M443.4,237.71c-0.2,0-0.39-0.12-0.47-0.33c-0.1-0.26,0.03-0.55,0.29-0.65c1.48-0.56,2.79-1.58,3.7-2.87
					c0.16-0.23,0.47-0.29,0.7-0.12c0.23,0.16,0.28,0.47,0.12,0.7c-1.02,1.46-2.5,2.61-4.17,3.24
					C443.52,237.69,443.46,237.71,443.4,237.71z"/>
			</g>
			<g>
				<path class="st10" d="M467.18,254.28c-0.29,0-0.54-0.21-0.59-0.5c-0.06-0.33,0.16-0.64,0.49-0.7l13.67-2.33
					c0.32-0.05,0.64,0.16,0.7,0.49c0.06,0.33-0.16,0.64-0.49,0.7l-13.67,2.33C467.25,254.28,467.22,254.28,467.18,254.28z"/>
			</g>
			<path class="st5" d="M433.93,154.19c-1.88,0.94-2.85,5.86,4.47,6.3c9.62,0.57,18.21-3.32,19.01-4.81c0.8-1.49-1.37-2.52-8.7-2.75
				C441.37,152.71,435.53,153.39,433.93,154.19z"/>
			<path class="st13" d="M467,114.62c0.17-4.16-1.54-8.56-4.23-9.55c-1.92-0.71-3.65,0.05-5.49,1.1
				c-2.06,1.18-16.65,0.53-17.75,2.56c-1.1,2.03,3.99,6.29,3.43,8.48c-0.73,2.82,6.8,3.18,6.35,6.03c-0.34,2.12-0.56,4.42,0.58,6.11
				c1.2,1.77-0.34,9.76,2.35,11.18c0,0,7.5,1.73,12.27-11.68C466.23,123.99,466.85,118.33,467,114.62z"/>
			<path class="st5" d="M454.63,136.99c0,0-1.61,8.73,0.22,17.89l-20.08,0.46c0,0,1.08-2.65,0.06-6.59l13.83-11.98L454.63,136.99z"
				/>
			<path class="st14" d="M454.63,136.99l-5.96-0.22l-13.83,11.98c0.67,2.59,0.43,3.29,0.19,5.07c-0.46,0.12-0.84,0.24-1.09,0.37
				c-0.37,0.18-0.7,0.52-0.94,0.95c1.37,0.72,3.35,1.31,6.14,1.27c5.87-0.1,11.29-3.39,15-7.26
				C453.61,141.67,454.63,136.99,454.63,136.99z"/>
			<path class="st11" d="M454.84,129.62c-3.33-0.64-3.54-5.1-2.26-8.05c0,0-5.47-4.15-3.6-10.61c-4.98-4.4-20.34-7.36-22.03,2.3
				c-2.81,16.15-1.01,26.05,0.67,30.71c1.78,4.9,7.06,6.99,13.34,5.03c4.12-1.29,8.09-5.41,10.59-11.44
				c3.2,1.23,6.01-0.68,7.64-3.46C462.06,128.01,456.75,127.61,454.84,129.62z"/>
			<path class="st15" d="M445.65,126.65c0.36,0.21-0.97,2.97-4.05,2.34c-2.23-0.46-2.15-2.21-1.82-2.35
				c0.33-0.13,0.79,0.8,2.03,1.12C443.47,128.18,445.29,126.44,445.65,126.65z"/>
			<path class="st15" d="M432.65,125.32c0.61,0.44-0.9,2.83-3.42,2.33c-2.3-0.46-2.2-2.55-1.83-2.62c0.37-0.06,0.35,1.16,2.03,1.44
				C431.29,126.78,432.34,125.08,432.65,125.32z"/>
			<path class="st13" d="M464.8,99.39c0.58,1.17-0.06,2.95-0.51,4.1c-0.52,1.33-1.54,2.66-2.96,3.11c-0.25,0.08-0.63-0.01-0.79-0.22
				c-0.29-0.38-0.31-0.77,0.04-1.16c0.23-0.25,0.66-0.33,0.94-0.52c0.36-0.25,0.64-0.59,0.9-0.94c0.54-0.74,0.92-1.56,1.23-2.4
				c0.24-0.65,0.35-1.38,0.69-1.98C464.43,99.21,464.71,99.21,464.8,99.39L464.8,99.39z"/>
			<path class="st16" d="M435.78,122.58c0,0,0.36,1.03,0.56,2.68c0.05,0.41,0.07,0.87,0.04,1.37c-0.02,0.25-0.04,0.49-0.1,0.79
				c-0.06,0.24-0.08,0.45-0.18,0.74c-0.34,1.11-0.91,2.1-1.62,3c-0.7,0.89-1.51,1.68-2.2,2.37c-0.16,0.16-0.33,0.35-0.39,0.44
				c0,0-0.03,0.05-0.01,0.01c0.05-0.09,0.04-0.16,0.03-0.28c0.05,0.24-0.04-0.11,0,0.02c0.09,0.16,0.4,0.41,0.67,0.57
				c0.57,0.36,1.14,0.56,1.53,0.69c0.4,0.11,0.64,0.17,0.64,0.17l0.01,0c0.31,0.09,0.49,0.41,0.4,0.72
				c-0.07,0.24-0.29,0.4-0.52,0.43c0,0-0.3,0.03-0.82-0.03c-0.52-0.05-1.25-0.21-2.06-0.62c-0.4-0.24-0.83-0.47-1.25-1.06
				c-0.09-0.06-0.27-0.62-0.24-0.61c-0.04-0.23,0.02-0.42,0.09-0.62c0.07-0.14,0.11-0.19,0.17-0.29c0.22-0.3,0.4-0.47,0.6-0.66
				c0.75-0.72,1.49-1.41,2.14-2.19c0.63-0.77,1.17-1.64,1.47-2.42c0.09-0.17,0.14-0.46,0.21-0.67c0.05-0.16,0.09-0.39,0.11-0.59
				c0.04-0.41,0.06-0.81,0.05-1.18c-0.01-0.75-0.09-1.39-0.16-1.83c-0.08-0.43-0.12-0.68-0.12-0.68c-0.05-0.26,0.13-0.52,0.4-0.57
				C435.46,122.22,435.7,122.36,435.78,122.58z"/>
			<path class="st14" d="M453.88,132.42c-0.98,1.35-1.04,2.85-0.15,3.36c0.89,0.51,2.41-0.16,3.39-1.51
				c0.98-1.35,1.04-2.85,0.15-3.36C456.37,130.4,454.86,131.08,453.88,132.42z"/>
			<g>
				<path class="st13" d="M433,120.16c-0.15,0.92-2.08,0.91-4.06,1.06c-2.93,0.22-3.65,0.22-3.9-0.57
					c-0.12-0.38,0.18-2.19,3.35-2.51C432.09,117.75,433.16,119.21,433,120.16z"/>
			</g>
			<g>
				<path class="st13" d="M443.76,122.89c2.13,0.69,3.72,1.57,4.36,0.87c0.54-0.6,0.32-2.3-3.02-3.79
					c-1.85-0.82-4.95-1.17-5.45,0.49C439.18,122.01,441.59,122.19,443.76,122.89z"/>
			</g>
			<path class="st13" d="M461.98,105.21c0,0-2.1-10.66-13.93-10.61c-9.35,0.04-16.5,5.3-21.37,4.73c-4.87-0.57-1.54-3.37-2.66-3.43
				c-1.13-0.06-7.96,3.33-3.43,10.68c4.09,6.64,17.58,6.59,28.2,5.06C459.42,110.12,461.98,105.21,461.98,105.21z"/>
			<g>
				<path class="st15" d="M442.8,137.03c0,0-2.71,1.22-5.73,2.12c-2.84,0.84-5.34,0.93-5.34,0.93s1.52,3.78,6.67,2.18
					C442.3,141.04,442.8,137.03,442.8,137.03z"/>
				<path class="st17" d="M438.25,141.41c-2.97,0.93-4.04-0.67-4.04-0.67s1.73-0.28,3.84-0.99c2.68-0.9,3.49-1.31,3.49-1.31
					S441.15,140.5,438.25,141.41z"/>
			</g>
			<g>
				<g>
					<path class="st18" d="M439.51,110.88c-3.71,0-7.43-0.41-11.04-1.24c-0.27-0.06-0.44-0.33-0.38-0.6
						c0.06-0.27,0.33-0.44,0.6-0.38c9.82,2.25,20.35,1.35,29.65-2.52c0.25-0.11,0.55,0.01,0.66,0.27c0.11,0.26-0.01,0.55-0.27,0.66
						C452.66,109.59,446.08,110.88,439.51,110.88z"/>
				</g>
				<g>
					<path class="st18" d="M450.77,111.82c-0.27,0-0.49-0.21-0.5-0.48c-0.01-0.28,0.2-0.51,0.48-0.53c2.37-0.11,4.73-0.77,6.81-1.89
						c0.24-0.13,0.55-0.04,0.68,0.2c0.13,0.24,0.04,0.55-0.2,0.68c-2.22,1.2-4.72,1.89-7.24,2.01
						C450.79,111.82,450.78,111.82,450.77,111.82z"/>
				</g>
				<g>
					<path class="st18" d="M425.87,108.73c-0.05,0-0.11-0.01-0.16-0.03c-1.86-0.65-3.45-2.1-4.26-3.9c-0.8-1.8-0.83-3.95-0.08-5.77
						c0.11-0.26,0.4-0.38,0.66-0.27c0.26,0.11,0.38,0.4,0.27,0.66c-0.65,1.57-0.63,3.43,0.07,4.98c0.69,1.55,2.06,2.81,3.67,3.36
						c0.26,0.09,0.4,0.38,0.31,0.64C426.27,108.6,426.08,108.73,425.87,108.73z"/>
				</g>
				<g>
					<path class="st18" d="M461.22,124.31c-2.74,0-5.46-1.37-7.02-3.65c-0.16-0.23-0.1-0.54,0.13-0.7c0.23-0.16,0.54-0.1,0.7,0.13
						c1.67,2.44,4.84,3.69,7.73,3.04c0.27-0.06,0.54,0.11,0.6,0.38c0.06,0.27-0.11,0.54-0.38,0.6
						C462.41,124.25,461.81,124.31,461.22,124.31z"/>
				</g>
				<g>
					<path class="st18" d="M460.74,126.44c-1.73,0-3.47-0.6-4.81-1.69c-0.22-0.17-0.25-0.49-0.07-0.71
						c0.18-0.22,0.49-0.25,0.71-0.07c1.41,1.14,3.32,1.66,5.1,1.39c0.28-0.04,0.53,0.15,0.57,0.42c0.04,0.27-0.15,0.53-0.42,0.57
						C461.47,126.41,461.11,126.44,460.74,126.44z"/>
				</g>
				<g>
					<path class="st18" d="M458.86,103.68c-0.18,0-0.36-0.1-0.45-0.28c-1.32-2.63-3.65-4.77-6.39-5.85
						c-2.74-1.09-5.9-1.13-8.66-0.12c-0.26,0.09-0.55-0.04-0.64-0.3c-0.09-0.26,0.04-0.55,0.3-0.64c3-1.09,6.41-1.05,9.38,0.13
						c2.96,1.18,5.48,3.49,6.91,6.34c0.12,0.25,0.02,0.55-0.22,0.67C459.02,103.66,458.94,103.68,458.86,103.68z"/>
				</g>
				<g>
					<path class="st18" d="M438.9,101.12c-0.18,0-0.36-0.1-0.45-0.27c-0.13-0.25-0.03-0.55,0.21-0.68c2.68-1.4,5.68-2.09,8.72-1.98
						c0.28,0.01,0.49,0.24,0.48,0.52c-0.01,0.28-0.21,0.49-0.52,0.48c-2.84-0.1-5.69,0.55-8.22,1.87
						C439.06,101.1,438.98,101.12,438.9,101.12z"/>
				</g>
				<g>
					<path class="st18" d="M433.61,107.98c-1.64,0-3.31-0.05-4.93-0.52c-2.1-0.62-3.72-1.91-4.45-3.55c-0.11-0.25,0-0.55,0.26-0.66
						c0.25-0.11,0.55,0,0.66,0.26c0.61,1.37,2,2.46,3.81,3c1.68,0.49,3.49,0.49,5.25,0.48l6.79-0.02c0,0,0,0,0,0
						c0.28,0,0.5,0.22,0.5,0.5c0,0.28-0.22,0.5-0.5,0.5l-6.79,0.02C434.02,107.98,433.82,107.98,433.61,107.98z"/>
				</g>
				<g>
					<path class="st18" d="M464.35,117.05c-0.05,0-0.09-0.01-0.14-0.02c-0.27-0.08-0.42-0.36-0.34-0.62
						c1.01-3.44,0.18-6.64-2.27-8.79c-0.21-0.18-0.23-0.5-0.05-0.71c0.18-0.21,0.5-0.23,0.71-0.05c2.76,2.42,3.69,6,2.58,9.83
						C464.77,116.9,464.57,117.05,464.35,117.05z"/>
				</g>
				<g>
					<path class="st18" d="M461.35,120.22c-0.09,0-0.18-0.02-0.26-0.07c-0.24-0.14-0.31-0.45-0.17-0.69
						c0.8-1.31,1.06-2.93,0.73-4.42c-0.06-0.27,0.11-0.54,0.38-0.6c0.26-0.06,0.54,0.11,0.6,0.38c0.39,1.75,0.07,3.63-0.86,5.16
						C461.69,120.13,461.52,120.22,461.35,120.22z"/>
				</g>
			</g>
			<g>
				<path class="st19" d="M439.76,164.53c-8.04,0-10.06-3.93-10.17-4.16c-0.12-0.25-0.02-0.55,0.23-0.67
					c0.25-0.12,0.55-0.02,0.67,0.23c0.05,0.09,3.57,6.63,20.02,1.8c0.27-0.08,0.55,0.07,0.62,0.34c0.08,0.27-0.07,0.55-0.34,0.62
					C446.23,164.03,442.61,164.53,439.76,164.53z"/>
			</g>
			<g>
				<path class="st19" d="M437.4,168.09c-4.59,0-6.52-2.25-6.61-2.35c-0.18-0.21-0.15-0.53,0.06-0.71c0.21-0.18,0.53-0.15,0.71,0.06
					c0.09,0.11,2.23,2.53,7.57,1.89c0.27-0.03,0.53,0.16,0.56,0.44c0.03,0.28-0.16,0.53-0.44,0.56
					C438.6,168.06,437.98,168.09,437.4,168.09z"/>
			</g>
			<g>
				<path class="st19" d="M468.82,204.87c-14.31,0-20.32-5.63-20.58-5.87c-0.2-0.19-0.21-0.51-0.01-0.71
					c0.19-0.2,0.51-0.21,0.71-0.02c0.06,0.06,6.25,5.81,20.72,5.59c0.27,0,0.51,0.22,0.51,0.49c0,0.28-0.22,0.51-0.49,0.51
					C469.38,204.86,469.1,204.87,468.82,204.87z"/>
			</g>
			<g>
				<path class="st19" d="M455.46,199.13c-0.03,0-0.07,0-0.1-0.01c-3.54-0.71-6.1-3.24-6.21-3.34c-0.2-0.2-0.2-0.51,0-0.71
					c0.2-0.2,0.51-0.2,0.71,0c0.02,0.02,2.46,2.42,5.7,3.07c0.27,0.05,0.45,0.32,0.39,0.59
					C455.9,198.97,455.69,199.13,455.46,199.13z"/>
			</g>
			<g>
				<path class="st10" d="M491.19,415.45c-0.98,0-2.01-0.04-3.08-0.13c-0.23-0.02-0.42-0.16-0.51-0.37l-32.71-80.72
					c-0.01-0.03-0.02-0.07-0.03-0.1l-11.61-56.49c-0.07-0.33,0.14-0.64,0.47-0.71c0.33-0.07,0.64,0.14,0.71,0.47l11.6,56.44
					l32.55,80.33c14.98,1.06,20.24-7.46,20.3-7.55c0.17-0.28,0.54-0.38,0.83-0.21c0.29,0.17,0.38,0.54,0.21,0.82
					C509.7,407.58,504.88,415.45,491.19,415.45z"/>
			</g>
			<g>
				<path class="st10" d="M442.34,280.9c-3.64,0-8.52-1.68-8.76-1.76c-0.31-0.11-0.48-0.45-0.37-0.77c0.11-0.31,0.45-0.48,0.77-0.37
					c0.07,0.02,6.89,2.37,10.03,1.51c0.32-0.09,0.65,0.1,0.74,0.42c0.09,0.32-0.1,0.65-0.42,0.74
					C443.74,280.84,443.06,280.9,442.34,280.9z"/>
			</g>
			<g>
				<path class="st10" d="M421.81,415.72c-4.6,0-13.89-0.74-18.75-6.32c-0.22-0.25-0.19-0.63,0.06-0.85
					c0.25-0.22,0.63-0.19,0.85,0.06c5.51,6.34,17.72,5.97,20.04,5.85c11.95-33.7,14.13-53.31,16.65-76
					c0.22-2.02,0.45-4.05,0.69-6.12c0-0.03,0.01-0.06,0.02-0.08l7.1-26.95c0.08-0.32,0.41-0.52,0.74-0.43
					c0.32,0.08,0.51,0.41,0.43,0.74l-7.09,26.91c-0.23,2.05-0.46,4.07-0.68,6.07c-2.54,22.85-4.74,42.58-16.85,76.65
					c-0.08,0.22-0.28,0.38-0.52,0.4C424.34,415.64,423.33,415.72,421.81,415.72z"/>
			</g>
			<g>
				<path class="st10" d="M420.03,415.38c-0.07,0-0.14-0.01-0.21-0.04c-0.31-0.11-0.47-0.46-0.36-0.77
					c0.09-0.25,9.17-25.51,11.88-44.77c2.72-19.32,4.86-37.37,4.88-37.55l9.79-40.08c0.08-0.32,0.41-0.52,0.73-0.44
					c0.32,0.08,0.52,0.4,0.44,0.73l-9.77,40.01c-0.01,0.11-2.16,18.18-4.88,37.51c-2.73,19.38-11.85,44.76-11.94,45.02
					C420.51,415.23,420.28,415.38,420.03,415.38z"/>
			</g>
			<g>
				<path class="st10" d="M467.54,343.48c-0.13,0-0.26-0.04-0.37-0.13c-4.72-3.74-7.67-9.57-7.89-15.6
					c-0.01-0.33,0.25-0.61,0.58-0.62c0.31,0,0.61,0.25,0.62,0.58c0.2,5.67,2.98,11.17,7.43,14.7c0.26,0.21,0.3,0.59,0.1,0.85
					C467.89,343.41,467.71,343.48,467.54,343.48z"/>
			</g>
			<g>
				<path class="st10" d="M474.08,334.14c-0.06,0-0.11-0.01-0.17-0.02c-0.32-0.09-0.5-0.43-0.41-0.75c0.54-1.87,0.45-3.9-0.26-5.72
					c-0.12-0.31,0.03-0.66,0.34-0.78c0.31-0.12,0.66,0.03,0.78,0.34c0.81,2.06,0.92,4.37,0.3,6.5
					C474.58,333.97,474.34,334.14,474.08,334.14z"/>
			</g>
			<g>
				<path class="st10" d="M416.97,343c-0.15,0-0.31-0.06-0.43-0.18c-0.24-0.24-0.23-0.62,0-0.85c3.29-3.28,4.76-8.32,3.73-12.85
					c-0.07-0.32,0.13-0.65,0.45-0.72c0.32-0.07,0.65,0.13,0.72,0.45c1.12,4.93-0.47,10.41-4.05,13.97
					C417.28,342.94,417.13,343,416.97,343z"/>
			</g>
		</g>
		<g>
			<path class="st20" d="M135.93,426.31h84.15v-13.9c0-10.75-2.67-19.46-19.46-19.46H155.4c-16.46,0-19.46,8.71-19.46,19.46V426.31z
				"/>
			<path class="st21" d="M155.4,392.94h25.14c-9.69,2.49-11.69,10.1-11.69,19.1v14.26h-32.91v-13.9
				C135.93,401.65,138.93,392.94,155.4,392.94z"/>
			
				<rect x="132.04" y="421.54" transform="matrix(-1 -1.224647e-16 1.224647e-16 -1 356.0107 847.8479)" class="st20" width="91.94" height="4.77"/>
			
				<rect x="132.04" y="421.54" transform="matrix(-1 -1.224647e-16 1.224647e-16 -1 297.575 847.8479)" class="st21" width="33.5" height="4.77"/>
			<g>
				<path class="st22" d="M174.76,423.53h8.29c0.39,0,0.7-0.31,0.7-0.7c0-0.39-0.31-0.7-0.7-0.7h-8.29c-0.39,0-0.7,0.31-0.7,0.7
					C174.06,423.22,174.37,423.53,174.76,423.53z"/>
			</g>
			<g>
				<path class="st22" d="M188.57,423.53h29.61c0.39,0,0.7-0.31,0.7-0.7c0-0.39-0.31-0.7-0.7-0.7h-29.61c-0.39,0-0.7,0.31-0.7,0.7
					C187.87,423.22,188.18,423.53,188.57,423.53z"/>
			</g>
			<g>
				<path class="st22" d="M215.42,419.54c0.39,0,0.7-0.31,0.7-0.7v-10.59c0-0.39-0.31-0.7-0.7-0.7s-0.7,0.31-0.7,0.7v10.59
					C214.72,419.23,215.03,419.54,215.42,419.54z"/>
			</g>
			<g>
				<path class="st22" d="M195.32,419.54h14.12c0.39,0,0.7-0.31,0.7-0.7c0-0.39-0.31-0.7-0.7-0.7h-14.12c-0.39,0-0.7,0.31-0.7,0.7
					C194.62,419.23,194.93,419.54,195.32,419.54z"/>
			</g>
			<path class="st23" d="M155.4,392.94h45.22c16.8,0,19.46,8.71,19.46,19.46v6.44c0-10.75-2.67-19.46-19.46-19.46H155.4
				c-16.46,0-19.46,8.71-19.46,19.46v-6.44C135.93,401.65,138.93,392.94,155.4,392.94z"/>
			<polygon class="st8" points="199.68,315.66 229.16,315.66 231.68,325.79 197.16,325.79 			"/>
			<polygon class="st24" points="199.68,315.66 207.66,315.66 205.14,325.79 197.16,325.79 			"/>
			<g>
				<path class="st24" d="M278.63,361.16c0.02,0,0.04,0,0.06,0c7.02-0.96,21.62-14.28,30.75-36.8c5.88-14.5,16.15-35.66,16.25-35.87
					c0.11-0.23,0.02-0.51-0.22-0.62c-0.23-0.11-0.51-0.02-0.62,0.21c-0.1,0.21-10.39,21.4-16.28,35.93
					c-9,22.2-23.21,35.3-30.01,36.23c-0.25,0.03-0.43,0.27-0.4,0.52C278.2,360.99,278.4,361.16,278.63,361.16z"/>
			</g>
			
				<rect x="256.13" y="318.78" transform="matrix(-1 -1.224647e-16 1.224647e-16 -1 533.1105 682.3965)" class="st20" width="20.86" height="44.84"/>
			
				<rect x="256.13" y="318.78" transform="matrix(-1 -1.224647e-16 1.224647e-16 -1 533.1104 653.0833)" class="st21" width="20.86" height="15.53"/>
			<path class="st20" d="M248.87,327.64h35.37c2.33,0,4.21-1.89,4.21-4.21v-14.34c0-2.33-1.89-4.21-4.21-4.21h-35.37
				c-2.33,0-4.21,1.89-4.21,4.21v14.34C244.66,325.76,246.54,327.64,248.87,327.64z"/>
			<path class="st25" d="M174.81,322.25h58.71c2.31,0,4.19,1.87,4.19,4.19v42.74h-67.09v-42.74
				C170.62,324.13,172.49,322.25,174.81,322.25z"/>
			
				<rect x="215.88" y="339.18" transform="matrix(-1 -1.224647e-16 1.224647e-16 -1 442.0405 684.0696)" class="st26" width="10.28" height="5.71"/>
			
				<rect x="215.88" y="339.18" transform="matrix(-1 -1.224647e-16 1.224647e-16 -1 435.9651 684.0696)" class="st27" width="4.21" height="5.71"/>
			<path class="st8" d="M173.9,322.25h4.83c-1.81,0-3.28,1.47-3.28,3.28v43.64h-4.83v-43.64
				C170.62,323.72,172.09,322.25,173.9,322.25z"/>
			
				<rect x="214.65" y="343.36" transform="matrix(-1 -1.224647e-16 1.224647e-16 -1 442.0405 706.2805)" class="st28" width="12.74" height="19.57"/>
			
				<rect x="214.65" y="343.36" transform="matrix(-1 -1.224647e-16 1.224647e-16 -1 434.5144 706.2805)" class="st26" width="5.21" height="19.57"/>
			<path class="st20" d="M199.12,395.6h89.33v-32.67c-27.09-1.6-56.7-1.26-87.94,0.35L199.12,395.6z"/>
			<polygon class="st21" points="288.45,391.61 288.45,395.6 199.12,395.6 199.29,391.61 			"/>
			<g>
				<path class="st22" d="M206.83,366.53c0.01,0,0.03,0,0.04,0c3.53-0.2,7.16-0.37,10.81-0.51c0.39-0.02,0.69-0.34,0.67-0.72
					c-0.02-0.39-0.32-0.69-0.73-0.67c-3.66,0.14-7.3,0.32-10.84,0.52c-0.38,0.02-0.68,0.35-0.66,0.74
					C206.15,366.25,206.46,366.53,206.83,366.53z"/>
			</g>
			<g>
				<path class="st22" d="M284.85,366.3c0.37,0,0.68-0.29,0.7-0.66c0.02-0.38-0.27-0.71-0.66-0.74c-0.26-0.01-26.49-1.45-58.74-0.57
					c-0.39,0.01-0.69,0.33-0.68,0.72c0.01,0.39,0.33,0.7,0.72,0.68c32.2-0.88,58.37,0.55,58.63,0.57
					C284.82,366.3,284.84,366.3,284.85,366.3z"/>
			</g>
			<path class="st24" d="M218.79,371.36c0,2.54,2.06,4.6,4.6,4.6c2.54,0,4.6-2.06,4.6-4.6c0-2.54-2.06-4.6-4.6-4.6
				C220.86,366.76,218.79,368.82,218.79,371.36z"/>
			<path class="st8" d="M127.17,387.95h73.34v-24.68c-23.52,1.39-70.1,5.56-73.34,14.99V387.95z"/>
			<path class="st20" d="M97.62,395.6h23.29l-2.78-15.9c-14.16,2.61-20.51,4.78-20.51,4.78V395.6z"/>
			<polygon class="st21" points="120.22,391.61 120.91,395.6 97.62,395.6 97.62,391.61 			"/>
			<path class="st25" d="M118.13,395.6h82.38v-24.68c-26.42,1.39-57.7,3.56-82.38,8.78V395.6z"/>
			<g>
				<circle class="st25" cx="103.01" cy="412.85" r="14.9"/>
				<path class="st28" d="M97.34,407.18c-3.13,3.13-3.13,8.21,0,11.34c3.13,3.13,8.21,3.13,11.34,0c3.13-3.13,3.13-8.21,0-11.34
					C105.55,404.04,100.47,404.04,97.34,407.18z"/>
				
					<ellipse transform="matrix(0.6741 -0.7386 0.7386 0.6741 -271.3664 210.6226)" class="st26" cx="103.01" cy="412.85" rx="6.99" ry="6.99"/>
				<path class="st25" d="M101.52,411.36c-0.82,0.82-0.82,2.16,0,2.98c0.82,0.82,2.16,0.82,2.98,0c0.82-0.82,0.82-2.16,0-2.98
					C103.68,410.53,102.34,410.53,101.52,411.36z"/>
				<g>
					<g>
						<path class="st29" d="M98.11,424.87c0.25,0,0.5-0.15,0.61-0.4c0.14-0.33-0.01-0.72-0.34-0.87c-3.14-1.35-5.52-4-6.52-7.26
							c-0.11-0.35-0.47-0.54-0.82-0.43c-0.35,0.11-0.54,0.48-0.43,0.82c1.12,3.63,3.77,6.57,7.26,8.08
							C97.93,424.85,98.02,424.87,98.11,424.87z"/>
					</g>
					<g>
						<path class="st29" d="M96.16,403.3c0.13,0,0.25-0.04,0.36-0.11c1.06-0.71,2.22-1.23,3.45-1.56c0.35-0.09,0.56-0.45,0.47-0.81
							c-0.09-0.35-0.46-0.56-0.81-0.47c-1.37,0.36-2.66,0.95-3.84,1.74c-0.3,0.2-0.38,0.61-0.18,0.91
							C95.74,403.2,95.95,403.3,96.16,403.3z"/>
					</g>
					<g>
						<path class="st29" d="M115.3,413.56c0.36,0,0.66-0.29,0.66-0.66c0-7.15-5.82-12.97-12.97-12.97c-0.36,0-0.66,0.29-0.66,0.66
							c0,0.36,0.29,0.66,0.66,0.66c6.43,0,11.66,5.23,11.66,11.66C114.64,413.26,114.93,413.56,115.3,413.56z"/>
					</g>
				</g>
			</g>
			<path class="st20" d="M110.14,395.25c0,0-1.09,19.47-7.2,19.47c-6.11,0-7.05-19.47-7.05-19.47H110.14z"/>
			
				<rect x="99.96" y="379.96" transform="matrix(-1 -1.224647e-16 1.224647e-16 -1 206.0235 774.77)" class="st25" width="6.1" height="14.86"/>
			
				<rect x="99.49" y="383.08" transform="matrix(-1 -1.224647e-16 1.224647e-16 -1 206.0235 778.6086)" class="st20" width="7.04" height="12.44"/>
			
				<rect x="99.49" y="383.08" transform="matrix(-1 -1.224647e-16 1.224647e-16 -1 202.1565 778.3016)" class="st21" width="3.17" height="12.13"/>
			<path class="st8" d="M214.65,340.98h12.74v-9.05c0-3.52-2.85-6.37-6.37-6.37l0,0c-3.52,0-6.37,2.85-6.37,6.37V340.98z"/>
			<g>
				
					<rect x="275.77" y="304.87" transform="matrix(-1 -1.224647e-16 1.224647e-16 -1 558.1372 621.5675)" class="st21" width="6.6" height="11.82"/>
				
					<rect x="263.25" y="304.87" transform="matrix(-1 -1.224647e-16 1.224647e-16 -1 533.1105 621.5675)" class="st21" width="6.6" height="11.82"/>
				
					<rect x="250.74" y="304.87" transform="matrix(-1 -1.224647e-16 1.224647e-16 -1 508.0836 621.5675)" class="st21" width="6.6" height="11.82"/>
			</g>
			<g>
				<path class="st8" d="M253.72,399.76c0.61,0,1.2-0.3,1.56-0.84l84.17-128.42c2.89-4.41,7.78-6.99,13.03-6.89l43.03,0.75
					c1.03,0.02,1.88-0.8,1.89-1.83c0.02-1.03-0.8-1.88-1.83-1.89l-43.03-0.75c-6.57-0.12-12.62,3.09-16.21,8.58l-84.17,128.42
					c-0.56,0.86-0.32,2.01,0.54,2.58C253.02,399.66,253.37,399.76,253.72,399.76z"/>
			</g>
			<g>
				<circle class="st25" cx="253.72" cy="397.9" r="29.85"/>
				
					<ellipse transform="matrix(0.6125 -0.7905 0.7905 0.6125 -216.2116 354.7711)" class="st28" cx="253.72" cy="397.9" rx="16.06" ry="16.06"/>
				
					<ellipse transform="matrix(0.7042 -0.71 0.71 0.7042 -207.4521 297.8186)" class="st26" cx="253.72" cy="397.9" rx="14" ry="14"/>
				<path class="st25" d="M250.74,394.91c-1.65,1.65-1.65,4.32,0,5.97c1.65,1.65,4.32,1.65,5.97,0c1.65-1.65,1.65-4.32,0-5.97
					C255.06,393.27,252.39,393.27,250.74,394.91z"/>
				<g>
					<g>
						<path class="st29" d="M243.04,423.5c0.33,0,0.65-0.19,0.79-0.52c0.19-0.43-0.01-0.94-0.45-1.13
							c-6.97-3.01-12.24-8.88-14.48-16.12c-0.14-0.45-0.62-0.71-1.07-0.57c-0.45,0.14-0.71,0.62-0.57,1.07
							c2.38,7.72,8.01,13.98,15.44,17.19C242.81,423.48,242.92,423.5,243.04,423.5z"/>
					</g>
					<g>
						<path class="st29" d="M238.81,376.69c0.16,0,0.33-0.05,0.47-0.14c2.36-1.57,4.94-2.74,7.66-3.46
							c0.46-0.12,0.73-0.59,0.61-1.05c-0.12-0.46-0.59-0.73-1.05-0.61c-2.91,0.77-5.66,2.02-8.18,3.69c-0.39,0.26-0.5,0.8-0.24,1.19
							C238.26,376.55,238.54,376.69,238.81,376.69z"/>
					</g>
					<g>
						<path class="st29" d="M280.35,398.94c0.47,0,0.86-0.38,0.86-0.86c0-15.21-12.38-27.59-27.59-27.59
							c-0.47,0-0.86,0.38-0.86,0.86c0,0.47,0.38,0.86,0.86,0.86c14.27,0,25.87,11.61,25.87,25.87
							C279.5,398.56,279.88,398.94,280.35,398.94z"/>
					</g>
				</g>
			</g>
			<g>
				<path class="st8" d="M224.01,373.3c0.28,0,0.57-0.07,0.84-0.2l69.35-35.29c0.92-0.47,1.28-1.59,0.81-2.5
					c-0.47-0.92-1.59-1.28-2.5-0.81l-69.35,35.29c-0.92,0.47-1.28,1.59-0.81,2.5C222.68,372.93,223.34,373.3,224.01,373.3z"/>
			</g>
			<path class="st25" d="M332.64,289.2l-15.65-9.21c0,0,13.5-26.39,19.95-25.16c6.44,1.23,3.38,9.82,3.38,9.82s5.22,3.38,2.15,10.74
				C339.39,282.75,332.64,289.2,332.64,289.2z"/>
			<g>
				<path class="st24" d="M395.55,265.53c1.65,0,2.99-1.32,3.02-2.97c0.03-1.67-1.3-3.05-2.97-3.08l-26.08-0.46
					c-1.66-0.02-3.05,1.3-3.08,2.97c-0.03,1.67,1.3,3.05,2.97,3.08l26.08,0.46C395.52,265.52,395.53,265.53,395.55,265.53z"/>
			</g>
			<path class="st28" d="M333.26,274.16c0,1.19,0.96,2.15,2.15,2.15c1.19,0,2.15-0.96,2.15-2.15c0-1.19-0.96-2.15-2.15-2.15
				C334.22,272.01,333.26,272.98,333.26,274.16z"/>
			<path class="st28" d="M328.65,280.91c0,1.19,0.96,2.15,2.15,2.15c1.19,0,2.15-0.96,2.15-2.15c0-1.19-0.96-2.15-2.15-2.15
				C329.62,278.77,328.65,279.73,328.65,280.91z"/>
			
				<rect x="355.04" y="259.13" transform="matrix(-1 -1.224647e-16 1.224647e-16 -1 716.2254 523.468)" class="st25" width="6.14" height="5.22"/>
			<path class="st25" d="M355.35,259.77c0,0,15.17-23.41,16.17-23.66c0.99-0.25,1.49,1.97-0.25,6.16
				c-1.74,4.19-10.94,18.24-10.94,18.24L355.35,259.77z"/>
			<path class="st24" d="M221.02,325.56c0.88,0,1.73,0.19,2.49,0.52c-2.28,0.99-3.88,3.31-3.88,6v8.9h-4.98v-8.9
				C214.65,328.48,217.5,325.56,221.02,325.56z"/>
			<g>
				<g>
					<path class="st29" d="M189.11,326.26h23.94c0.39,0,0.7-0.31,0.7-0.7c0-0.39-0.31-0.7-0.7-0.7h-23.94c-0.39,0-0.7,0.31-0.7,0.7
						C188.41,325.94,188.72,326.26,189.11,326.26z"/>
				</g>
				<g>
					<path class="st29" d="M178.75,326.26h5.29c0.39,0,0.7-0.31,0.7-0.7c0-0.39-0.31-0.7-0.7-0.7h-5.29c-0.39,0-0.7,0.31-0.7,0.7
						C178.05,325.94,178.36,326.26,178.75,326.26z"/>
				</g>
			</g>
			<g>
				<path class="st29" d="M127.65,381.49c0.04,0,0.08,0,0.12-0.01c3.52-0.6,7.31-1.18,11.27-1.73c0.38-0.05,0.65-0.41,0.6-0.79
					c-0.05-0.38-0.41-0.64-0.79-0.6c-3.98,0.55-7.78,1.13-11.31,1.74c-0.38,0.06-0.64,0.43-0.57,0.8
					C127.03,381.25,127.32,381.49,127.65,381.49z"/>
			</g>
			<g>
				<path class="st29" d="M146.53,378.77c0.03,0,0.06,0,0.09-0.01c23.84-2.91,46.44-3.94,46.66-3.95c0.38-0.02,0.68-0.34,0.67-0.73
					c-0.02-0.38-0.33-0.7-0.73-0.67c-0.23,0.01-22.87,1.05-46.77,3.96c-0.38,0.05-0.65,0.39-0.61,0.78
					C145.88,378.52,146.18,378.77,146.53,378.77z"/>
			</g>
			<g>
				<path class="st22" d="M248.56,325.34h6.44c0.39,0,0.7-0.31,0.7-0.7c0-0.39-0.31-0.7-0.7-0.7h-6.44c-0.39,0-0.7,0.31-0.7,0.7
					C247.86,325.02,248.18,325.34,248.56,325.34z"/>
			</g>
			<g>
				<path class="st22" d="M260.68,325.34h23.02c0.39,0,0.7-0.31,0.7-0.7c0-0.39-0.31-0.7-0.7-0.7h-23.02c-0.39,0-0.7,0.31-0.7,0.7
					C259.98,325.02,260.3,325.34,260.68,325.34z"/>
			</g>
			<rect x="118.13" y="391.57" class="st8" width="82.38" height="4.03"/>
			<g>
				<path class="st22" d="M104.64,393.61c0.26,0,0.47-0.21,0.47-0.47v-8.59c0-0.26-0.21-0.47-0.47-0.47c-0.26,0-0.47,0.21-0.47,0.47
					v8.59C104.17,393.4,104.38,393.61,104.64,393.61z"/>
			</g>
			<g>
				<path class="st22" d="M104.26,411.79c0.08,0,0.15-0.02,0.22-0.06c0.73-0.4,1.37-1.41,1.95-3.1c0.08-0.24-0.04-0.51-0.29-0.59
					c-0.24-0.08-0.51,0.05-0.59,0.29c-0.62,1.8-1.17,2.4-1.51,2.59c-0.23,0.12-0.31,0.41-0.19,0.63
					C103.93,411.71,104.09,411.79,104.26,411.79z"/>
			</g>
			<g>
				<path class="st22" d="M106.8,405.98c0.21,0,0.41-0.15,0.45-0.36c0.88-3.95,1.3-8.47,1.3-8.52c0.01-0.13-0.03-0.26-0.12-0.36
					c-0.09-0.1-0.21-0.15-0.34-0.15h-8.21c-0.26,0-0.47,0.21-0.47,0.47s0.21,0.47,0.47,0.47h7.7c-0.13,1.28-0.53,4.77-1.23,7.89
					c-0.06,0.25,0.1,0.5,0.35,0.56C106.73,405.98,106.77,405.98,106.8,405.98z"/>
			</g>
			<path class="st21" d="M98.26,395.25c0,0,0.89,18.4,6.66,18.4c0.12,0,0.23-0.01,0.35-0.03c-0.68,0.69-1.46,1.09-2.34,1.09
				c-6.11,0-7.05-19.47-7.05-19.47H98.26z"/>
			<g>
				<path class="st29" d="M320.98,278.62c0.23,0,0.45-0.11,0.59-0.32c1.13-1.75,2.26-3.5,3.37-5.19c0.21-0.32,0.12-0.75-0.2-0.97
					c-0.32-0.21-0.75-0.12-0.97,0.2c-1.11,1.69-2.24,3.44-3.37,5.2c-0.21,0.32-0.12,0.76,0.21,0.96
					C320.72,278.58,320.85,278.62,320.98,278.62z"/>
			</g>
			<g>
				<path class="st29" d="M327.07,269.33c0.24,0,0.47-0.12,0.6-0.34c4.48-7.58,7.93-10.63,8.85-10.63c0.01,0,0.03,0,0.04,0
					c0.38,0.03,0.73-0.24,0.76-0.62c0.04-0.38-0.24-0.73-0.62-0.76c-2.47-0.25-7.05,5.94-10.23,11.3c-0.2,0.33-0.09,0.76,0.25,0.96
					C326.83,269.3,326.95,269.33,327.07,269.33z"/>
			</g>
			<path class="st24" d="M170.69,331.75v1.11c-1.76,1.24-6.35,4.95-4.55,9.27c2.56,6.14,13.28,3.41,13.38,3.39
				c0.25-0.04,0.49,0.12,0.54,0.37c0.05,0.25-0.12,0.49-0.37,0.54c-0.16,0.03-3.29,0.59-5.24,0.59c-3.26,0-7.76-0.74-9.17-4.58
				C163.21,336.83,169.39,332.57,170.69,331.75z"/>
			<g>
				<path class="st26" d="M182.85,359.1h20.46c1.84,0,3.33-1.49,3.33-3.33v-13.51c0-1.84-1.49-3.33-3.33-3.33h-20.46
					c-1.84,0-3.33,1.49-3.33,3.33v13.51C179.52,357.61,181.01,359.1,182.85,359.1z"/>
				<g>
					<path class="st8" d="M179.05,356.49v-14.95c0-1.69,1.38-3.07,3.07-3.07h21.9c1.69,0,3.07,1.38,3.07,3.07v14.95
						c0,1.69-1.38,3.07-3.07,3.07h-21.9C180.43,359.56,179.05,358.19,179.05,356.49z M182.13,339.4c-1.18,0-2.14,0.96-2.14,2.14
						v14.95c0,1.18,0.96,2.14,2.14,2.14h21.9c1.18,0,2.14-0.96,2.14-2.14v-14.95c0-1.18-0.96-2.14-2.14-2.14H182.13z"/>
				</g>
				<g>
					<g>
						<path class="st8" d="M201.36,359.05c0.26,0,0.47-0.21,0.47-0.47v-19.1c0-0.26-0.21-0.47-0.47-0.47
							c-0.26,0-0.47,0.21-0.47,0.47v19.1C200.9,358.84,201.1,359.05,201.36,359.05z"/>
					</g>
					<g>
						<path class="st8" d="M195.84,359.05c0.26,0,0.47-0.21,0.47-0.47v-19.1c0-0.26-0.21-0.47-0.47-0.47s-0.47,0.21-0.47,0.47v19.1
							C195.37,358.84,195.58,359.05,195.84,359.05z"/>
					</g>
					<g>
						<path class="st8" d="M190.31,359.05c0.26,0,0.47-0.21,0.47-0.47v-19.1c0-0.26-0.21-0.47-0.47-0.47s-0.47,0.21-0.47,0.47v19.1
							C189.85,358.84,190.06,359.05,190.31,359.05z"/>
					</g>
					<g>
						<path class="st8" d="M184.79,359.05c0.26,0,0.47-0.21,0.47-0.47v-19.1c0-0.26-0.21-0.47-0.47-0.47s-0.47,0.21-0.47,0.47v19.1
							C184.33,358.84,184.53,359.05,184.79,359.05z"/>
					</g>
				</g>
				<g>
					<g>
						<path class="st8" d="M179.78,344.19h26.47c0.26,0,0.47-0.21,0.47-0.47s-0.21-0.47-0.47-0.47h-26.47
							c-0.26,0-0.47,0.21-0.47,0.47S179.53,344.19,179.78,344.19z"/>
					</g>
					<g>
						<path class="st8" d="M179.78,349.48h26.47c0.26,0,0.47-0.21,0.47-0.47s-0.21-0.47-0.47-0.47h-26.47
							c-0.26,0-0.47,0.21-0.47,0.47S179.53,349.48,179.78,349.48z"/>
					</g>
					<g>
						<path class="st8" d="M179.78,354.78h26.47c0.26,0,0.47-0.21,0.47-0.47s-0.21-0.47-0.47-0.47h-26.47
							c-0.26,0-0.47,0.21-0.47,0.47S179.53,354.78,179.78,354.78z"/>
					</g>
				</g>
			</g>
		</g>
	</g>
</g>
<g id="Layer_1">
</g>
</svg>
