<?xml version="1.0" encoding="utf-8"?>
<!-- Generator: Adobe Illustrator 23.0.1, SVG Export Plug-In . SVG Version: 6.00 Build 0)  -->
<svg version="1.1" xmlns="http://www.w3.org/2000/svg" xmlns:xlink="http://www.w3.org/1999/xlink" x="0px" y="0px"
	 viewBox="0 0 546 449" style="enable-background:new 0 0 546 449;" xml:space="preserve">
<style type="text/css">
	.st0{clip-path:url(#SVGID_2_);}
	.st1{fill:url(#SVGID_3_);}
	.st2{fill:#F4F2EA;}
	.st3{fill:#341413;}
	.st4{fill:#A3B523;}
	.st5{fill:#BBD631;}
	.st6{fill:#798092;}
	.st7{fill:url(#SVGID_4_);}
	.st8{fill:url(#SVGID_5_);}
	.st9{fill:url(#SVGID_6_);}
	.st10{fill:#3B314A;}
	.st11{fill:#E6E6ED;}
	.st12{fill:#F7A491;}
	.st13{fill:#6C5E81;}
	.st14{opacity:0.5;fill:#F47458;}
	.st15{fill:#FFFFFF;}
	.st16{fill:#344E41;}
	.st17{fill:#588157;}
	.st18{fill:#F8A492;}
	.st19{fill:#C1C1C1;}
	.st20{fill:#F47458;}
	.st21{fill:#880136;}
	.st22{fill:#FFE838;}
	.st23{fill:#FFF2BD;}
	.st24{fill:#A16EB0;}
	.st25{fill:#642D78;}
	.st26{fill:#BC4D26;}
	.st27{fill:#FFFDF5;}
	.st28{fill:#50BFA5;}
	.st29{fill:#3C8F7C;}
	.st30{fill:#466EB6;}
	.st31{fill:#F48C7F;}
	.st32{fill:#FAE0B2;}
	.st33{fill:#7F1CA0;}
	.st34{fill:#C60554;}
</style>
<g id="Layer_2">
</g>
<g id="Layer_3">
</g>
<g id="Layer_4">
	<g>
		<defs>
			<path id="SVGID_1_" d="M524-100v481.29c-109.27,96.86-384.24,99.17-513-73.67V-100H524z"/>
		</defs>
		<clipPath id="SVGID_2_">
			<use xlink:href="#SVGID_1_"  style="overflow:visible;"/>
		</clipPath>
		<g class="st0">
			<linearGradient id="SVGID_3_" gradientUnits="userSpaceOnUse" x1="578.713" y1="55.2876" x2="39.7648" y2="516.3156">
				<stop  offset="0" style="stop-color:#F9ED5B"/>
				<stop  offset="1" style="stop-color:#BBE96C"/>
			</linearGradient>
			<path class="st1" d="M554.01,257.92v141.62C428.35,510.93,112.13,513.59-35.95,314.82v-56.9H554.01z"/>
			<path class="st2" d="M545.73,231.83v-73.84h-43.42v67.52l-12.99,0.43v-68.08h-15.16v-29.01h-9.09v-19.48h-35.5v19.48h-9.09v29.01
				h-15.16v36.88l-6.99,0.44l-2.1-109.26h-46.76v58.12l-16.45,0.43V53.64h-5.63V34.46h-49.36v19.17h-5.63v122.42h-10.39v-38.17
				h-8.66v-18.66h-12.56V64.73h-18.19v54.48h-12.56v18.66h-8.66v64.58h-6.06l-4.76-0.06v-74.82L62.4,128.8v168.48H51.58V275.2H12.61
				v42.43H1.36v-15.59h-24.68v28.76c2.35,2.81,4.74,5.58,7.16,8.3c3.19,3.58,6.44,7.09,9.74,10.52c6.21,6.45,12.61,12.62,19.2,18.53
				c0.19,0.17,0.39,0.35,0.58,0.52c0.24,0.21,0.47,0.42,0.71,0.63h539.94V231.83H545.73z"/>
			<path class="st2" d="M414.54,34.54c-0.79-3.46-3.89-6.04-7.59-6.04c-0.68,0-1.34,0.09-1.97,0.25c-1.83-3.9-5.79-6.61-10.38-6.61
				c-1.19,0-2.33,0.18-3.41,0.52c-2.47-4.1-6.97-6.84-12.1-6.84c-6.11,0-11.31,3.88-13.28,9.3c-1.4-0.78-3-1.22-4.71-1.22
				c-5.35,0-9.7,4.34-9.7,9.7c0,0.32,0.02,0.63,0.05,0.94H414.54z"/>
			<path class="st2" d="M191.28,77.71c-0.79-3.46-3.89-6.04-7.59-6.04c-0.68,0-1.34,0.09-1.97,0.25c-1.83-3.9-5.79-6.61-10.38-6.61
				c-1.19,0-2.33,0.18-3.41,0.52c-2.47-4.1-6.97-6.84-12.1-6.84c-6.11,0-11.31,3.88-13.28,9.3c-1.4-0.78-3-1.22-4.71-1.22
				c-5.35,0-9.7,4.34-9.7,9.7c0,0.32,0.02,0.63,0.05,0.94H191.28z"/>
			<path class="st2" d="M408.51,54.6c0.4-1.74,1.96-3.04,3.83-3.04c0.34,0,0.67,0.04,0.99,0.13c0.92-1.97,2.92-3.33,5.23-3.33
				c0.6,0,1.18,0.09,1.72,0.26c1.25-2.07,3.51-3.45,6.1-3.45c3.08,0,5.7,1.95,6.7,4.69c0.7-0.39,1.51-0.62,2.38-0.62
				c2.7,0,4.89,2.19,4.89,4.89c0,0.16-0.01,0.32-0.02,0.47H408.51z"/>
			<path class="st2" d="M130.39,31.58c-0.54-2.35-2.64-4.1-5.15-4.1c-0.46,0-0.91,0.06-1.34,0.17c-1.24-2.65-3.93-4.49-7.05-4.49
				c-0.81,0-1.59,0.12-2.32,0.35c-1.68-2.78-4.73-4.64-8.22-4.64c-4.15,0-7.68,2.63-9.02,6.32c-0.95-0.53-2.04-0.83-3.2-0.83
				c-3.64,0-6.59,2.95-6.59,6.59c0,0.22,0.01,0.43,0.03,0.64H130.39z"/>
			<path class="st2" d="M257.71,19.79c-0.54-2.35-2.64-4.1-5.15-4.1c-0.46,0-0.91,0.06-1.34,0.17c-1.24-2.65-3.93-4.49-7.05-4.49
				c-0.81,0-1.59,0.12-2.32,0.35c-1.68-2.78-4.73-4.64-8.22-4.64c-4.15,0-7.68,2.63-9.02,6.32c-0.95-0.53-2.04-0.83-3.2-0.83
				c-3.64,0-6.59,2.95-6.59,6.59c0,0.22,0.01,0.43,0.03,0.64H257.71z"/>
			<g>
				<path class="st3" d="M13.36,254.86v113.82c-0.19-0.17-0.39-0.35-0.58-0.52c-6.59-5.91-13-12.09-19.2-18.53v-94.77l9.89-9.44
					L13.36,254.86z"/>
				<path class="st3" d="M-16.16,254.86v84.25c-2.42-2.72-4.81-5.49-7.16-8.3c-4.33-5.18-8.55-10.5-12.63-15.99v-59.96l9.89-9.44
					L-16.16,254.86z"/>
				<rect x="-32.01" y="283.75" class="st3" width="66.14" height="6.34"/>
				<polygon class="st3" points="44.42,369.96 24.63,369.96 24.63,254.86 34.52,245.42 44.42,254.86 				"/>
				<polygon class="st3" points="103.47,369.96 83.68,369.96 83.68,254.86 93.57,245.42 103.47,254.86 				"/>
				<polygon class="st3" points="73.94,369.96 54.15,369.96 54.15,254.86 64.05,245.42 73.94,254.86 				"/>
				<rect x="31.78" y="283.75" class="st3" width="92.47" height="6.34"/>
				<polygon class="st3" points="134.52,369.96 114.73,369.96 114.73,254.86 124.63,245.42 134.52,254.86 				"/>
				<polygon class="st3" points="193.57,369.96 173.78,369.96 173.78,254.86 183.68,245.42 193.57,254.86 				"/>
				<polygon class="st3" points="164.05,369.96 144.26,369.96 144.26,254.86 154.15,245.42 164.05,254.86 				"/>
				<rect x="121.88" y="283.75" class="st3" width="92.47" height="6.34"/>
				<polygon class="st3" points="224.62,369.96 204.84,369.96 204.84,254.86 214.73,245.42 224.62,254.86 				"/>
				<polygon class="st3" points="283.68,369.96 263.89,369.96 263.89,254.86 273.78,245.42 283.68,254.86 				"/>
				<polygon class="st3" points="254.15,369.96 234.36,369.96 234.36,254.86 244.26,245.42 254.15,254.86 				"/>
				<rect x="211.99" y="283.75" class="st3" width="92.47" height="6.34"/>
				<polygon class="st3" points="314.73,369.96 294.94,369.96 294.94,254.86 304.83,245.42 314.73,254.86 				"/>
				<polygon class="st3" points="373.78,369.96 353.99,369.96 353.99,254.86 363.89,245.42 373.78,254.86 				"/>
				<polygon class="st3" points="344.26,369.96 324.47,369.96 324.47,254.86 334.36,245.42 344.26,254.86 				"/>
				<rect x="302.09" y="283.75" class="st3" width="92.47" height="6.34"/>
				<polygon class="st3" points="404.83,369.96 385.04,369.96 385.04,254.86 394.94,245.42 404.83,254.86 				"/>
				<polygon class="st3" points="463.89,369.96 444.1,369.96 444.1,254.86 453.99,245.42 463.89,254.86 				"/>
				<polygon class="st3" points="434.36,369.96 414.57,369.96 414.57,254.86 424.47,245.42 434.36,254.86 				"/>
				<rect x="392.19" y="283.75" class="st3" width="92.47" height="6.34"/>
				<polygon class="st3" points="494.94,369.96 475.15,369.96 475.15,254.86 485.04,245.42 494.94,254.86 				"/>
				<polygon class="st3" points="553.99,369.96 534.2,369.96 534.2,254.86 544.1,245.42 553.99,254.86 				"/>
				<polygon class="st3" points="524.46,369.96 504.68,369.96 504.68,254.86 514.57,245.42 524.46,254.86 				"/>
				<rect x="482.3" y="283.75" class="st3" width="67.57" height="6.34"/>
			</g>
			<g>
				<path class="st4" d="M95.76,357.37c0.16-0.95,0.24-1.92,0.24-2.91c0-11.03-10.33-19.97-23.08-19.97
					c-12.75,0-23.08,8.94-23.08,19.97c0,0.99,0.08,1.96,0.24,2.91H95.76z"/>
				<path class="st5" d="M121.89,352.46c0.16-1.34,0.24-2.71,0.24-4.1c0-15.55-10.33-28.16-23.08-28.16
					c-12.75,0-23.08,12.61-23.08,28.16c0,1.39,0.08,2.76,0.24,4.1H121.89z"/>
				<path class="st5" d="M113.44,369.72c-0.16-0.95-0.24-1.92-0.24-2.91c0-11.03,10.33-19.97,23.08-19.97s23.08,8.94,23.08,19.97
					c0,0.99-0.08,1.96-0.24,2.91H113.44z"/>
				<path class="st4" d="M76.49,369.72c-0.2-1.34-0.31-2.71-0.31-4.1c0-15.55,13.1-28.16,29.26-28.16
					c16.16,0,29.26,12.61,29.26,28.16c0,1.39-0.11,2.76-0.31,4.1H76.49z"/>
				<path class="st5" d="M98.96,337.46c-8.08,0-15.29,4-20.05,10.27c-2.42-0.58-5-0.89-7.67-0.89c-14.34,0-25.97,8.94-25.97,19.97
					c0,0.99,0.09,1.96,0.27,2.91h79.11c0.18-1.34,0.27-2.71,0.27-4.1C124.93,350.06,113.3,337.46,98.96,337.46z"/>
			</g>
			<g>
				<path class="st6" d="M8.62,206.88c0.04-1.03,1.64-1.82,2.49-0.91c0.85,0.91,0.81,0.29,1.64,2.25
					c2.38,5.63,5.87,11.07,9.93,15.83c7.79,9.12,15.49,13.72,24.24,18.27c-3.61-7.16-6.02-14.79-6.33-22.5
					c-0.11-2.81-0.05-5.72,1.31-8.3c0.38-0.72,1.84-0.57,1.99,0.23c0.74,3.98-0.35,6.97,1.11,14.09
					c3.49,16.98,17.29,34.99,30.6,47.6c-2.55-21.35-3.79-45.62,0.78-67.15c0.75-3.53,1.94-6.89,3.05-10.34
					c0.26-0.81,1.57-0.46,1.41,0.34c-0.23,1.15-2.4,15.97-2.54,16.99c-2.11,16.4-1.69,34.57-0.05,51.14
					c10.33-12.32,17.24-26.72,20.47-41.76c0.96-4.45,1.21-9.04,2.55-13.4c0.18-0.6,1.31-0.67,1.45,0c1.38,6.54-1.38,18.1-3.39,24.39
					c-4.07,12.73-10.58,24.15-19.48,34.35c-0.35,0.4,14.29,100.05,13.9,101.31c-0.66,2.13-4.87,3.62-5.53-0.15
					c-0.27-1.54-8.31-62.13-11.94-90.19c-1.37-0.67-2.25-1.85-5.78-5.34C62.37,265.54,54.3,255.48,48.9,246
					c-3.24-0.16-26.62-10.18-38.22-33c-0.33-0.66-1.84-3.75-2.06-4.44C8.44,207.98,8.6,207.47,8.62,206.88z"/>
				<path class="st5" d="M83.71,174.57c-0.27-3.07-0.4-6.2-0.4-9.4c0-35.59,17.15-64.45,38.31-64.45
					c21.16,0,38.31,28.85,38.31,64.45c0,3.19-0.14,6.33-0.4,9.4H83.71z"/>
				<linearGradient id="SVGID_4_" gradientUnits="userSpaceOnUse" x1="178.7901" y1="41.6299" x2="-10.5987" y2="187.189">
					<stop  offset="0" style="stop-color:#F9ED5B"/>
					<stop  offset="1" style="stop-color:#BBE96C"/>
				</linearGradient>
				<path class="st7" d="M40.36,158.73c-0.27-4.33-0.4-8.75-0.4-13.25c0-50.2,17.15-90.89,38.31-90.89
					c21.16,0,38.31,40.69,38.31,90.89c0,4.5-0.14,8.92-0.4,13.25H40.36z"/>
				<linearGradient id="SVGID_5_" gradientUnits="userSpaceOnUse" x1="189.6529" y1="55.7637" x2="0.2643" y2="201.3226">
					<stop  offset="0" style="stop-color:#F9ED5B"/>
					<stop  offset="1" style="stop-color:#BBE96C"/>
				</linearGradient>
				<path class="st8" d="M54.38,214.43c0.27-3.07,0.4-6.2,0.4-9.4c0-35.59-17.15-64.45-38.31-64.45
					c-21.16,0-38.31,28.85-38.31,64.45c0,3.19,0.14,6.33,0.4,9.4H54.38z"/>
				<path class="st5" d="M115.69,214.43c0.34-4.33,0.51-8.75,0.51-13.25c0-50.2-21.74-90.89-48.56-90.89s-48.56,40.69-48.56,90.89
					c0,4.5,0.18,8.92,0.51,13.25H115.69z"/>
				<linearGradient id="SVGID_6_" gradientUnits="userSpaceOnUse" x1="214.8868" y1="88.5962" x2="25.4981" y2="234.1552">
					<stop  offset="0" style="stop-color:#F9ED5B"/>
					<stop  offset="1" style="stop-color:#BBE96C"/>
				</linearGradient>
				<path class="st9" d="M78.4,110.29c13.4,0,25.38,12.91,33.28,33.15c4.02-1.86,8.3-2.86,12.73-2.86
					c23.8,0,43.09,28.85,43.09,64.45c0,3.19-0.16,6.33-0.46,9.39H35.77c-0.3-4.33-0.46-8.75-0.46-13.25
					C35.31,150.98,54.61,110.29,78.4,110.29z"/>
			</g>
			<g>
				<path class="st4" d="M554.01,296.76v65.03c-0.04,0.02-0.08,0.04-0.12,0.06l-3.93,1.71c-6.88,3-15.04-0.49-18.23-7.79l-2.89-6.61
					c-1.39-3.19-4.02-5.42-7-6.32c-5.09-1.55-9.38-5.29-11.59-10.34l-2.04-4.67c-0.65-1.48-0.93-3.07-0.86-4.61
					c0.08-1.89,0.7-3.71,1.84-5.22c2.28-3.01,2.87-7.28,1.18-11.16l-3.87-8.86c-1.44-3.29-2.12-6.71-2.12-10.05
					c0-8.94,4.89-17.27,13.19-20.9c4.52-1.97,9.89,0.32,11.99,5.13l2.71,6.53c2.3,5.27,5.55,7.69,8.66,8.68
					C546.14,289.04,550.73,292.33,554.01,296.76z"/>
				<path class="st5" d="M554.01,339.88v32.71h-99.85c-0.2-0.36-0.87-1.51-1.83-3.27c-0.2-0.36-0.41-0.74-0.63-1.15
					c-1.64-3.02-3.91-7.3-6.24-12.11c-0.56-1.15-1.12-2.33-1.68-3.53c-0.4-0.86-0.8-1.72-1.19-2.6c-0.05-0.11-0.09-0.21-0.14-0.32v0
					c-6.62-14.84-11.79-31.35-1.99-31.35c1.83,0,3.64,0.16,5.39,0.43c0.47,0.08,0.93,0.16,1.39,0.25h0
					c3.89,0.76,7.52,2.1,10.77,3.66c1.54,0.73,2.99,1.52,4.33,2.31c6.4,3.77,10.47,7.77,10.59,7.89c-0.16-0.32-12.95-26.28,0-29.76
					c0.07-0.02,0.13-0.04,0.2-0.05h0.01c0.3-0.07,0.6-0.12,0.92-0.15c0.17-0.02,0.34-0.03,0.51-0.03c0.08-0.01,0.17-0.01,0.25-0.01
					c0.07,0,0.14,0,0.21,0c0.02,0,0.04,0,0.07,0c3.05,0.06,6.84,1.57,10.97,3.97c2.06,1.2,4.21,2.62,6.4,4.19
					c4.99,3.58,10.15,7.95,14.88,12.24c9.93,9.02,17.97,17.75,18.52,18.34c-0.79-1.09-20.11-27.9,1.28-20.97
					C535.16,323.16,544.89,330.99,554.01,339.88z"/>
			</g>
			<g>
				<polygon class="st6" points="232.24,369.54 229.59,369.54 234.95,319.3 237.6,319.3 				"/>
				<polygon class="st6" points="262.12,369.54 264.77,369.54 259.41,319.3 256.76,319.3 				"/>
				
					<rect x="103.01" y="304.56" transform="matrix(-1 -1.224647e-16 1.224647e-16 -1 212.6774 622.5925)" class="st10" width="6.66" height="13.47"/>
				<polygon class="st6" points="88.02,307.69 227.3,306.79 227.82,280.91 81.76,280.33 				"/>
				
					<rect x="102.05" y="315.7" transform="matrix(-1 -1.224647e-16 1.224647e-16 -1 365.0529 638.5995)" class="st6" width="160.96" height="7.2"/>
				
					<rect x="84.79" y="315.7" transform="matrix(-1 -1.224647e-16 1.224647e-16 -1 198.6804 638.5995)" class="st11" width="29.09" height="7.2"/>
				<polygon class="st11" points="81.76,280.33 88.02,307.69 93.37,307.66 87.17,280.33 				"/>
				<polygon class="st11" points="84.4,369.54 81.75,369.54 87.11,319.3 89.76,319.3 				"/>
				<polygon class="st11" points="114.28,369.54 116.93,369.54 111.57,319.3 108.92,319.3 				"/>
			</g>
			<g>
				<path class="st12" d="M252.05,354.54c0,0,0.58,6.32,0.2,8.38c-0.05,0.28-0.16,0.63-0.29,1.01c-0.39,1.16,0.68,4.68,0.68,4.68
					l14.4,0.05c0.78,0,0.26-0.49-0.38-0.95c-1.04-0.75-1.89-1.24-5.21-2.79c-0.22-0.1-1.01-0.59-1.29-0.76
					c-0.72-0.43-1.45-1.11-2.08-1.79c-1.05-1.14-1.21-6.71-1.21-6.71L252.05,354.54z"/>
				<path class="st10" d="M260.16,364.16c-3.8,1.02-6.62,0.39-8.2-0.22c-0.39,1.15-1.13,5.05-0.69,5.05c3.61,0,6.67,0.68,17.02,0.52
					c0.37-0.01,0.33-1.28,0.08-1.56C267.7,367.18,260.44,364.33,260.16,364.16z"/>
				<path class="st12" d="M268.36,344.06c0,0,3.15,5.51,3.66,7.54c0.07,0.27,0.11,0.64,0.15,1.04c0.12,1.21,2.56,3.98,2.56,3.98
					l13.13-5.93c0.71-0.32,0.03-0.56-0.74-0.71c-1.26-0.25-2.23-0.34-5.9-0.38c-0.24,0-1.16-0.12-1.49-0.15
					c-0.84-0.09-1.78-0.41-2.64-0.76c-1.43-0.6-3.88-5.6-3.88-5.6L268.36,344.06z"/>
				<path class="st10" d="M219.09,239.75c-1.73-3.5-6.01-5.49-9.91-5.5c-12.39-0.02-13.97,15.92-21.85,22.07
					c-2.37,1.84-5,3.35-7.26,5.32c-0.04,1.33,0.18,2.64,0.6,3.83c0.49,1.31,1.14,2.5,1.91,3.59l3.34-1.93l-1.45,4.22
					c2.98,3.1,6.94,5.38,10.8,7.51c5.39,2.89,11.13,4.13,16.98,4.4c2.18-4.4,3.71-9.27,5.39-13.82c2.01-5.45,3.69-11.12,3.93-16.93
					C221.76,248.14,221.1,243.82,219.09,239.75z"/>
				<path class="st10" d="M279.72,349.45c-3.03,2.51-5.86,3.11-7.55,3.2c0.12,1.21,1.07,5.07,1.47,4.88
					c3.29-1.5,6.35-2.15,15.7-6.59c0.33-0.16-0.23-1.3-0.57-1.45C287.84,349.07,280.05,349.49,279.72,349.45z"/>
				<path class="st12" d="M241.64,314.3c-0.9-0.14-3.07-1.7-3.84-1.84c-0.6-0.11-1.88-0.3-2.43-0.39
					c-0.67-2.51-4.09-16.2-4.47-20.21c-0.41-4.35-3.49-23.15-3.49-23.15l-7.96,1.45c0,0,3.31,14.47,4.22,21.48
					c0.79,6.02,7.4,19.57,8.24,21c0,0.03,0,0.07,0,0.1c0.13,2.13,1.15,1.42,1.15,1.42l1.66,0.43c0,0,5.89,0.57,6.27,0.71
					C241.39,315.43,242.54,314.44,241.64,314.3z"/>
				<path class="st13" d="M221.27,258.76c5.63,1.91,8.03,16.16,8.03,16.16s-8.83,2.46-11.09,1.17c0,0-2.57-11.38-3.49-10.98
					L221.27,258.76z"/>
				<path class="st13" d="M215.14,257.67L215.14,257.67L215.14,257.67c0.15,0,0.35-0.05,0.57-0.12c1.04-0.19,3.79,0.45,5.57,1.2
					c2.16,0.91,3.47,8.96,3.27,17.71c-0.08,1.34-1.09,21.94-1.19,22.01c-2.58,1.66-17.95,2.47-19.02,1.06
					c-1.07-1.41-1.89-25.84-2.41-26.69l-1.02-14.94C202.7,257.36,212.37,257.65,215.14,257.67z"/>
				<path class="st12" d="M208.83,252.17c0,0,1,5.18,0.8,7.23c-0.2,2.04,0.76,8.63,5.09,8.65c4.33,0.02,0.82-8.38,0.41-10.38
					c-0.41-2-0.5-8.2-0.5-8.2L208.83,252.17z"/>
				<path class="st14" d="M214.72,252.58c-0.07-1.7-0.09-3.11-0.09-3.11l-5.8,2.7c0,0,0.2,1.06,0.41,2.41
					C211.78,255.09,213.62,254.15,214.72,252.58z"/>
				<path class="st12" d="M206.71,237.87c0,0-2.24,1.24-3.05,3.93c-0.82,2.69,0.11,9.63,5.89,11.3c5.78,1.67,8.28-3.82,7.09-8.11
					C215.44,240.69,212.85,235.25,206.71,237.87z"/>
				<path class="st12" d="M217.35,243.32c-0.11,1.15-0.75,2.04-1.42,1.97c-0.67-0.07-1.12-1.05-1.01-2.21
					c0.11-1.15,0.75-2.04,1.42-1.97C217.01,241.17,217.47,242.16,217.35,243.32z"/>
				<path class="st10" d="M207.39,237.52c0,0-1.05,7.74-3.55,9.14c-2.5,1.4-1.45,4.83-1.45,4.83s-2.27-7.97-0.29-10.53
					C204.07,238.39,207.39,237.52,207.39,237.52z"/>
				<path class="st12" d="M205.32,247.76c0.68,1.01,0.68,2.2-0.01,2.66c-0.68,0.46-1.78,0.01-2.46-1c-0.68-1.01-0.68-2.2,0.01-2.66
					C203.54,246.31,204.64,246.75,205.32,247.76z"/>
				<path class="st15" d="M213.73,248.19l-4.07,1.02c0,0,0.49,1.55,2.29,1.15C214.15,249.88,213.73,248.19,213.73,248.19z"/>
				<path class="st12" d="M177.28,314.68c0.07-0.19,0.23-0.2,0.39-0.21c1.61-0.1,3.21-0.22,4.8-0.51c0.27-0.05,0.53-0.12,0.77-0.22
					c0.44-0.19,0.88-0.2,1.33-0.09c0.24,0.06,0.49,0.06,0.74,0.06c0.81-0.03,3.09-0.89,4.27-1.13c0.27-0.06,0.48-0.27,0.54-0.54
					c1.02-4.65,3.2-15.09,3.42-18.5c0.28-4.37,2.67-24.1,2.67-24.1l8.12,1.99c0,0-2.86,14.6-3.55,21.65
					c-0.54,5.45-5.6,17.13-7.19,20.5c-0.75,2.49-2.61,2.62-3.05,2.68c-0.25,0.04-0.47,0.17-0.63,0.36
					c-0.28,0.35-0.61,0.66-0.99,0.92c-0.28,0.19-0.49,0.43-0.67,0.71c-0.33,0.51-0.62,1.04-0.9,1.57c-0.19,0.35-0.4,0.47-0.7,0.4
					c-0.32-0.08-0.48-0.31-0.49-0.7c-0.01-0.57,0.16-1.1,0.43-1.6c0.26-0.47,0.23-0.73-0.1-1.15c-0.19-0.24-0.38-0.47-0.63-0.65
					c-0.25-0.19-0.51-0.33-0.83-0.27c-0.57,0.16-1.15,0.3-1.74,0.38l-0.48,0.11c-0.02,0-0.26,0.06-0.26,0.06
					c-0.04,0.01-0.89,0.13-1.19,0.14c-0.24,0.01-0.62,0.04-0.94,0.06c-0.29,0.02-0.92-0.11-0.94-0.11c-0.29,0-0.54-0.09-0.76-0.28
					c-0.09-0.08-0.18-0.16-0.14-0.3c0.04-0.12,0.13-0.18,0.26-0.2c0.19-0.04,1.19-0.19,1.18-0.24c-0.3,0.01-1.23,0.02-1.52,0.02
					c-0.4,0-0.75-0.13-1.04-0.42C177.35,314.98,177.22,314.87,177.28,314.68z"/>
				<path class="st13" d="M201.11,257.84c-3.97-0.72-7.57,17.08-7.57,17.08s8.83,2.46,11.09,1.17c0,0,2.57-11.38,3.49-10.98
					L201.11,257.84z"/>
				<path class="st16" d="M223.56,297.01v3.25l30.53,6.42l7.58,22.76l-4.22-2.88l0.98,35.06l-6.42,0.04c0,0-11.13-29.41-7.48-44.2
					l-33.79,0.52c0,0-15.32-5.91-7.41-23.75L223.56,297.01z"/>
				<path class="st17" d="M223.56,300.25c0,0,31.67,0.21,33.92,1.94c2.25,1.73,19.13,44.78,19.13,44.78l-7.36,2.75
					c0,0-14.65-24.42-15.42-26.16c-0.78-1.74-6.45-14.48-8.61-15.78C243.05,306.49,223.56,300.25,223.56,300.25z"/>
			</g>
			<path class="st18" d="M164.48,287.57c-2.79-1.06-26.18-9.95-27.1-10.63c-0.83-0.61-13.22-15.49-13.22-15.49l8.54-3.36
				l10.93,14.04c0.81,0.47,16.04,8.58,16.04,8.58s2.75,1.56,4.43,2.39c0.47-0.04,0.91-0.09,1.28-0.13c0.8-0.15,1.48-0.4,2.07-0.64
				c0.74-0.3,2.28-0.7,2.66-0.7c0.45,0,1.37,0.04,1.92,0.07c0.55,0.03,1.2,0.04,1.49,0.09c0.18,0.03,0.57-0.06,0.85-0.13
				c0.42-0.11,0.75,0.36,0.52,0.72c-0.22,0.34-0.78,0.51-1.13,0.6c-0.98,0.28-2.6,0.13-2.55,0.28c0.05,0.15,2.56,1.3,2.83,1.45
				c0.28,0.15,3.19,1.51,3.66,1.96c0.48,0.45,0.28,0.83-0.1,0.84c-0.32,0.01-4.48-1.57-4.48-1.57s-0.53-0.2-0.42,0.09
				c0.11,0.29,3.88,1.73,4.4,2.05c0.52,0.32,0.72,0.78,0.18,0.98c-0.66,0.24-4.59-1.54-4.59-1.54s-0.5-0.22-0.51,0.02
				c-0.01,0.24,3.22,1.41,3.46,1.66c0.24,0.25,0.23,0.72-0.3,0.8c-0.63,0.09-4.12-1.53-4.12-1.53s-0.3-0.05-0.24,0.12
				c0.06,0.17,2.74,1.36,2.92,1.72c0.15,0.3-0.11,0.44-0.11,0.44c-0.5,0.43-2.94-1.1-4.27-1.45
				C168.22,288.97,164.57,287.61,164.48,287.57z"/>
			<path class="st16" d="M132.59,251.55c0,0,2.1,0.39,5.67,6.54c3.33,5.74,6.28,12.17,6.28,12.17l-5.98,6.3
				c0,0-4.4-13.51-4.77-13.94C133.43,262.19,132.59,251.55,132.59,251.55z"/>
			<path class="st12" d="M152.68,359.48c0,0-0.32,5.37-0.32,5.38c-0.12,0.68-0.58,2.37-0.58,2.99c0,2.33,10.95-1.98,8.5-3.01
				c-0.22-0.09-1.39-0.8-1.46-1.59c-0.11-1.22-0.4-3.69-0.4-3.69L152.68,359.48z"/>
			<path class="st12" d="M171.27,359.48c0,0-0.32,5.37-0.32,5.38c-0.12,0.68-0.58,2.37-0.58,2.99c0,2.33,10.95-1.98,8.5-3.01
				c-0.22-0.09-1.88-0.39-1.95-1.18c-0.11-1.22-0.32-5-0.32-5L171.27,359.48z"/>
			<path class="st19" d="M135.69,303.12l26.19,0.11c0,0,11.83-0.31,13.7,3.82c1.87,4.13,2,53.11,2,53.11s-6.19,0.35-6.51,0
				l-7.8-27.33c-0.76-2.66-1.02-5.45-0.76-8.2l0.68-7.31l-10.8,0.56c0,0-12.25-0.2-16.29-4.3
				C132.04,309.48,135.69,303.12,135.69,303.12z"/>
			<path class="st2" d="M117.94,300.2l28.16,1.74c0,0,12.12,0.99,13.99,5.13c1.87,4.13-0.63,53.09-0.63,53.09s-7.12,0.31-7.11,0
				c0.02-0.37-3.36-20.15-4.97-27.71c-0.51-2.4-0.69-4.86-0.53-7.31l0.73-7.96c0,0-29.88-0.28-31.18-1.6
				C112.37,311.49,117.94,300.2,117.94,300.2z"/>
			<path class="st17" d="M132.59,251.55c-4.08-0.35-11.39,0.57-11.39,0.57s-4.66,0.22-6.05,0.86c-2.05,0.93-6.05,2.01-4.45,11.53
				c1.15,6.81,3.72,29.16,5.32,40.61l28.53-3.17C138.64,279.31,136.46,251.88,132.59,251.55z"/>
			<path class="st12" d="M123.26,243.25l-2.63,8.92c0,0,4.47,5.15,7.57,4.64c2.6-0.42,1.39-4.18,1.39-4.18s-0.64-5.06,0.13-7.55
				C130.49,242.6,123.26,243.25,123.26,243.25z"/>
			<path class="st20" d="M124.32,246.37c1.18,0.83,3.09,1.86,5.02,2.36c-0.01-1.3,0.08-2.67,0.38-3.64
				c0.35-1.15-0.99-1.63-2.55-1.81c-2.06-0.11-3.91-0.03-3.91-0.03l-0.51,1.71C123.08,245.46,123.93,246.09,124.32,246.37z"/>
			<g>
				<path class="st12" d="M122.64,229.3c-0.2-0.09-2.35,10.82,0.24,14.02c2.6,3.2,7.96,4.54,10.06,2.28
					c2.32-2.5,2.94-14.33-1.19-17.72C127.61,224.49,122.64,229.3,122.64,229.3z"/>
				<path class="st21" d="M130.46,221.89c-3.39,0.48-5.69,2.41-6.54,3.24c-1.53,0.09-3.65,0.8-6,4.23
					c-2.89,4.22-1.26,9.2,1.65,11.78c2.9,2.58,2.69,5.33,2.69,5.33l0.57-1.39c0.42-1.06,0.64-2.19,0.59-3.33
					c-0.03-0.68-0.13-1.43-0.37-2.05c-0.64-1.64,1.74-2.55,2.47-3.83c0.56-0.99,0.73-3.32,1.62-4.96l1.02-1.23
					c0,0,2.27-1.57,4.36-0.95C134.62,229.34,134.81,221.28,130.46,221.89z"/>
				<path class="st12" d="M125.26,237.81c-0.06,1.34-0.73,2.4-1.5,2.37c-0.77-0.04-1.34-1.15-1.28-2.5c0.06-1.34,0.73-2.4,1.5-2.37
					C124.75,235.35,125.32,236.47,125.26,237.81z"/>
			</g>
			<path class="st12" d="M107.36,270.26l7.66,2.38c0,0-1.45,6.68-1.46,7.47c0,0,13.05,6.98,18.51,9.17l-0.15,4.78
				c-1.07-0.4-1.93-0.81-2.46-0.98c-1.04-0.33-17.73-5.46-17.73-5.46s-6.57-2.34-6.79-3.61
				C104.72,282.75,107.36,270.26,107.36,270.26z"/>
			<path class="st16" d="M105.14,274.72c0,0,3.67-14.97,5.67-18.81c2-3.84,6.3-4.33,9.09-1.72c2.79,2.61-5.22,22.57-5.22,22.57
				L105.14,274.72z"/>
			<path class="st10" d="M160.25,364.35c0,0-2.57,0.71-3.89,0.89c-1.32,0.18-3.05-1.32-3.99-0.92c-1.03,0.45-0.99,4.46-0.99,4.46
				s13.79,1.14,17.67-0.04C170.6,368.28,165.51,366.01,160.25,364.35z"/>
			<path class="st10" d="M178.85,364.35c0,0-2.57,0.71-3.89,0.89c-1.32,0.18-3.05-1.32-3.99-0.92c-1.03,0.45-0.99,4.46-0.99,4.46
				s13.79,1.14,17.67-0.04C189.19,368.28,184.1,366.01,178.85,364.35z"/>
			<path class="st15" d="M128.81,241.52l3.79,0.02c0,0-0.09,1.48-1.76,1.52C128.8,243.1,128.81,241.52,128.81,241.52z"/>
			<g>
				<path class="st22" d="M245.19,274.07c0,0.05,0.01,0.1,0.01,0.14c0.03,0.3,0.06,0.6,0.09,0.9c0.01,0.08,0.02,0.16,0.02,0.25
					l-8.26,2.44l-5.92-0.62l-0.27-1.44l0.46-0.11l0.44,0.29l0.46-0.25l0.45,0.28l0.46-0.26l0.46,0.27l0.45-0.27l0.46,0.26l0.45-0.28
					l0.47,0.25l0.44-0.29l0.47,0.24l0.43-0.3l0.48,0.23l0.43-0.31l0.48,0.21l0.42-0.33l0.49,0.2l0.41-0.34l0.5,0.18l0.4-0.35
					l0.5,0.17l0.38-0.37l0.51,0.15l0.37-0.38l0.51,0.13l0.35-0.4l0.52,0.1l0.33-0.42l0.53,0.07l0.3-0.44l0.47-0.09
					C245.15,273.74,245.17,273.9,245.19,274.07z"/>
				<path class="st10" d="M245.29,275.25c0.1-0.05,0.27,5.77,0.67,7.26c0.4,1.49,1.39,6.84,1.39,6.84l-14.32,2.26
					c0,0-0.37-7.69-0.81-10.04c-0.44-2.35-1.18-4.33-1.07-4.38C231.24,277.14,241.94,276.74,245.29,275.25z"/>
				<path class="st23" d="M233.42,284.4c0.33,1.74,3.15,2.67,6.29,2.07c3.15-0.6,5.43-2.49,5.1-4.23c-0.33-1.74-3.15-2.67-6.29-2.07
					C235.37,280.77,233.09,282.66,233.42,284.4z"/>
			</g>
			<path class="st24" d="M215.52,285.36c0.99-0.04,1.94-0.42,2.66-1.11c0.53-0.5,1.9-1.41,3.11-1.12c2.21,0.53,2.71,2.98,1.16,4.96
				c-1.36,1.74-6.68,4.23-8.81,0.57C212.15,286.11,213.83,285.44,215.52,285.36z"/>
			<g>
				<path class="st25" d="M222.24,286.39c-0.47-0.06-0.92-0.4-1.31-0.65c-0.44-0.28-0.88-0.62-1.23-1.01
					c-0.1-0.11,0.05-0.23,0.16-0.17c0.45,0.25,0.88,0.55,1.31,0.84c0.38,0.25,0.87,0.45,1.17,0.8
					C222.42,286.27,222.35,286.4,222.24,286.39L222.24,286.39z"/>
			</g>
			<g>
				<path class="st25" d="M221.24,287.46c-0.76,0.11-2.14-1.16-2.67-1.73c-0.13-0.14,0.09-0.37,0.23-0.24
					c0.4,0.37,0.83,0.68,1.28,0.98c0.38,0.25,0.97,0.44,1.23,0.82C221.35,287.35,221.33,287.45,221.24,287.46L221.24,287.46z"/>
			</g>
			<g>
				<path class="st20" d="M219.24,288.23c-0.28-0.17-0.45-0.43-0.65-0.68c-0.22-0.27-0.48-0.51-0.7-0.79
					c-0.21-0.26,0.13-0.58,0.37-0.4c0.49,0.37,1.16,1.07,1.23,1.71C219.52,288.22,219.36,288.3,219.24,288.23L219.24,288.23z"/>
			</g>
			<g>
				<path class="st20" d="M217.73,288.65c-0.27-0.32-0.59-0.79-0.58-1.23c0.01-0.31,0.68,0.01,0.82,1.12
					C217.98,288.67,217.82,288.75,217.73,288.65L217.73,288.65z"/>
			</g>
			<g>
				<path class="st20" d="M216.63,287.73c0.31,0.93-0.24,0.95-0.32,0.72c-0.08-0.22-0.04-0.5,0.03-0.71
					C216.38,287.61,216.59,287.6,216.63,287.73L216.63,287.73z"/>
			</g>
			<g>
				<path class="st24" d="M216.58,289.17c0,0-0.67,3.11-5.1,3.67c-4.09,0.52-5.25-3.67-3.33-4.57c1.93-0.9,4.16-1.28,5.19-2.11
					C215.24,284.66,217.3,287.56,216.58,289.17z"/>
				<path class="st25" d="M209.88,285.85c0.3,0.33,0.51,0.82,0.6,1.18c0.26,1.03,0,2.08-0.66,2.9c-1.66,2.06-6.82,2.6-6.77-0.21
					c0.05-2.81,2.98-1.49,4.06-2.6c0.48-0.5,0.65-1.19,1.26-1.54C208.85,285.31,209.57,285.51,209.88,285.85z"/>
				<g>
					<path class="st24" d="M208.74,286.87c0.29,0.2,0.49,0.42,0.7,0.7c0.18,0.25,0.41,0.52,0.34,0.84c-0.02,0.08-0.12,0.14-0.2,0.11
						c-0.27-0.11-0.36-0.37-0.51-0.61c-0.18-0.28-0.37-0.55-0.53-0.84C208.47,286.95,208.61,286.79,208.74,286.87L208.74,286.87z"/>
				</g>
				<g>
					<path class="st24" d="M208.14,287.56c0.28,0.31,0.93,1.27,0.95,1.71c0.01,0.16-0.2,0.21-0.29,0.12
						c-0.22-0.21-0.31-0.51-0.44-0.78c-0.15-0.29-0.31-0.58-0.45-0.87C207.85,287.6,208.02,287.43,208.14,287.56L208.14,287.56z"/>
				</g>
				<g>
					<path class="st24" d="M207.15,288.06c0.15,0.32,0.65,1.41,0.66,1.8c0,0.13-0.19,0.22-0.28,0.11c-0.37-0.47-0.5-1.23-0.64-1.8
						C206.86,288.01,207.08,287.91,207.15,288.06L207.15,288.06z"/>
				</g>
				<g>
					<path class="st24" d="M206.26,288.54c0.13,0.2,0.18,0.42,0.24,0.64c0.14,0.52,0.24,0.79,0.04,0.89
						c-0.17,0.08-0.29,0.01-0.35-0.15c-0.06-0.16-0.26-1.01-0.23-1.3C205.97,288.46,206.17,288.4,206.26,288.54L206.26,288.54z"/>
				</g>
				<g>
					<path class="st24" d="M205.22,288.97c0.29,0.29,0.45,0.81,0.2,0.94c-0.1,0.05-0.19,0.06-0.28-0.02c-0.19-0.17,0-0.43-0.15-0.74
						C204.92,289,205.1,288.85,205.22,288.97L205.22,288.97z"/>
				</g>
			</g>
			<g>
				<path class="st2" d="M212.28,285.66c0.69-0.97,2.01-0.86,3.55-0.39c1.33,0.4,4.02,0.85,4.73,0.96c0.72,0.05,3.44,0.21,4.83,0.12
					c1.6-0.11,2.92,0.08,3.37,1.18c0.45,1.1,0.73,3.77-7.94,3.08l-1.5-0.17C210.72,289.17,211.59,286.63,212.28,285.66z"/>
				<path class="st5" d="M210.28,285.07c0.67-0.47,1.24-0.44,3.54,0.69c0.6,0.3,1.35,0.57,2.11,0.8c2.85,0.88,5.85,1.22,8.83,1
					c0.8-0.06,1.58-0.16,2.24-0.31c2.49-0.59,3.05-0.49,3.6,0.12c0.55,0.6,0.5,2.55-2.38,2.87c-2.88,0.32-8.19,0.84-8.25,0.73
					c-0.02-0.03-0.01-0.29,0.01-0.65c-0.06,0.36-0.11,0.61-0.14,0.64c-0.08,0.1-5.14-1.59-7.88-2.55
					C209.23,287.44,209.62,285.54,210.28,285.07z"/>
				<path class="st2" d="M211.96,288.4c0.69-0.97,2.01-0.86,3.55-0.39c1.33,0.4,4.02,0.85,4.73,0.96c0.72,0.05,3.45,0.21,4.83,0.12
					c1.6-0.11,2.92,0.08,3.37,1.18c0.45,1.1,0.73,3.77-7.94,3.08l-1.5-0.17C210.41,291.91,211.28,289.37,211.96,288.4z"/>
				<g>
					<path class="st21" d="M217.14,289.45c0.73,0.08,1.49-0.19,1.99-0.73c0.1-0.11,0.18-0.21,0.26-0.32
						c0.04-0.05,0.07-0.1,0.11-0.14c0.31-0.38,0.71-0.64,1.11-0.71c0.4-0.07,0.82,0.06,1.05,0.32c0.05,0.06,0.12,0.23,0.19,0.37
						c0.26,0.6,0.7,1.59,2.17,1.71c1.37,0.11,1.96-1.41,2.16-1.91c0.02-0.05,0.03-0.09,0.05-0.12c0.1-0.23,0.53-0.33,0.87-0.2
						c0.45,0.18,0.81,0.63,1.14,1.03c0.19,0.24,0.54,0.27,0.78,0.08c0.24-0.19,0.27-0.54,0.08-0.78c-0.39-0.48-0.87-1.07-1.59-1.36
						c-0.8-0.32-1.9-0.11-2.3,0.78c-0.02,0.04-0.04,0.09-0.06,0.16c-0.23,0.58-0.55,1.25-1.04,1.21c-0.81-0.07-1.01-0.52-1.24-1.05
						c-0.1-0.24-0.2-0.46-0.36-0.64c-0.48-0.57-1.31-0.84-2.1-0.69c-0.66,0.12-1.28,0.51-1.76,1.1c-0.05,0.06-0.09,0.11-0.13,0.17
						c-0.07,0.09-0.13,0.17-0.19,0.23c-0.28,0.3-0.71,0.44-1.11,0.38c-0.4-0.07-0.77-0.35-0.94-0.71c-0.08-0.17-0.13-0.37-0.18-0.59
						c-0.09-0.38-0.2-0.81-0.49-1.18c-0.66-0.83-1.89-0.85-2.71-0.44c-0.27,0.14-0.39,0.47-0.25,0.74c0.14,0.27,0.47,0.39,0.74,0.25
						c0.43-0.21,1.06-0.22,1.34,0.14c0.14,0.18,0.21,0.44,0.28,0.75c0.06,0.26,0.13,0.52,0.25,0.79c0.32,0.71,1,1.22,1.77,1.35
						C217.07,289.44,217.11,289.45,217.14,289.45z"/>
				</g>
			</g>
			<polygon class="st6" points="161.93,368.77 157.08,368.77 166.92,299.89 171.78,299.89 			"/>
			<polygon class="st6" points="216.79,368.77 221.65,368.77 211.81,299.89 206.95,299.89 			"/>
			<polygon class="st6" points="263.91,368.77 259.05,368.77 268.89,299.89 273.75,299.89 			"/>
			<polygon class="st6" points="318.77,368.77 323.63,368.77 313.79,299.89 308.93,299.89 			"/>
			<g>
				<path class="st5" d="M183.71,290.42h8.91c2.14,0,3.88-1.73,3.88-3.88v-1.76h-16.66v1.76
					C179.83,288.68,181.57,290.42,183.71,290.42z"/>
				<path class="st4" d="M194.33,284.78h2.15c0,3.11-2.52,5.63-5.63,5.63h-2.15C191.81,290.42,194.33,287.89,194.33,284.78z"/>
			</g>
			<g>
				<path class="st26" d="M185.46,293.92h5.39c3.11,0,5.63-2.52,5.63-5.63l0,0h-16.66l0,0
					C179.83,291.39,182.35,293.92,185.46,293.92z"/>
				<path class="st27" d="M185.46,293.92h5.39c3.11,0,5.63-2.52,5.63-5.63l0,0h-16.66l0,0
					C179.83,291.39,182.35,293.92,185.46,293.92z"/>
				<path class="st2" d="M194.33,288.28h2.15c0,3.11-2.52,5.63-5.63,5.63h-2.15C191.81,293.92,194.33,291.39,194.33,288.28z"/>
			</g>
			<g>
				<path class="st25" d="M248.53,287.79c-0.13,2.3-3.16,4.47-6.21,4.47c-3.05,0-5.95-2.28-5.95-4.58c0-3.3,1.71-3.3,3.89-3.12
					c0.41,0.03,0.85,0.07,1.28,0.1c0.26,0.02,0.52,0.03,0.78,0.03c0.27,0,0.55-0.01,0.82-0.03c0.33-0.02,0.66-0.06,0.99-0.09
					C246.58,284.29,248.75,283.99,248.53,287.79z"/>
				<g>
					<path class="st28" d="M240.75,281.36c0,0,0,0,0.02,0l0-0.01C240.76,281.36,240.75,281.36,240.75,281.36z"/>
					<path class="st4" d="M245.31,283.13c-0.3-0.3-0.6,0-0.6,0c0.42,0,0.23,0.49-0.12,0.85c-0.21,0.21-1.77,0.14-2.32,0.03
						c-0.03-0.01-0.07-0.01-0.11-0.02c0.4-1.18-0.1-3.84-1.65-3.37l0.26,0.73c0.03-0.02,0.1-0.05,0.17-0.05
						c0.65-0.07,1.22,1.78,1.04,2.68c-0.94-0.02-2.6,0.49-2.77,0.2c-0.23-0.38,0.33-0.46,0.33-0.46l0.5,0.13c0,0-0.48-0.7-0.96-0.53
						c-0.79,0.28-0.61,1.01-0.42,1.2c0.15,0.15,1.62,0.15,2.33,0.15c-0.25,0.09-1.04,0.49-1.45,1.13c-0.46,0.73,0.5,1.75,0.5,1.75
						s-0.52-1.01,0.04-1.57c0.44-0.44,1.33-0.99,1.7-1.21l0.05,2.53c0,0,0.56-0.49,0.56-1.46c0-0.64-0.1-0.99-0.16-1.15l0.51,0.04
						c0.3,0.09,0.79,0.27,1.16,0.49c0.58,0.35-0.29,1.3-0.29,1.3s0.45-0.15,0.69-0.59c0.46-0.85-0.05-1.08-0.48-1.26
						c0.33-0.04,0.64-0.02,1.1-0.1C245.69,284.42,245.61,283.43,245.31,283.13z"/>
				</g>
			</g>
			<rect x="161.52" y="293.52" class="st11" width="54.03" height="6.37"/>
			<rect x="214.3" y="293.52" class="st6" width="106.08" height="6.37"/>
			<g>
				<path class="st5" d="M271.92,290.43c0,0,3.55-8.95,3.39-10.47c-0.16-1.52-1.53-2.28-2.33-0.54c-0.8,1.74-1.09,3.66-1.69,2.97
					c-0.61-0.69,1.54-7.9-0.9-8.37c-2.43-0.47-0.86,9.24-1.82,9.02c-0.96-0.22-1.47-10.58-4.06-9.74
					c-2.59,0.83,1.69,10.51,0.7,10.51c-0.99,0-2.59-9.16-5.47-7.75c-2.88,1.41,3.63,8.46,2.59,9.64s-5.18-7.46-7.83-5
					c-2.65,2.46,6.55,7.46,6.2,7.85c-0.34,0.39-7.87-5.82-9.53-3.46c-1.66,2.35,5.83,3.58,5.37,4.35c-0.46,0.77-4.3-0.51-4.06,1.01
					c0.24,1.52,8.38,1.49,8.38,1.49L271.92,290.43z"/>
				<path class="st29" d="M287.08,286.58c-0.78-0.33-1.13-0.92-0.51-1.51c0.78-0.8,2.43-0.63,3.13,0.35c0.53,0.73,0.4,1.8-0.05,2.52
					c-0.23,0.38-0.57,0.7-0.97,0.92c-0.45,0.27-1.06,0.4-1.26,0.39l0.1,0.43c0.25-0.05,0.49-0.12,0.72-0.21
					c0.8-0.33,1.36-0.82,1.7-1.39c0-0.01,0.99-1.56,0.11-2.87c-0.93-1.4-3.33-1.5-4.2-0.14c-0.54,0.83,0.03,1.71,0.96,2.12
					L287.08,286.58z"/>
				<path class="st30" d="M285.47,289.4c0,0-5.69-0.44-6.24-0.61c-0.55-0.18-0.41-1.34-2.53-1.75c-2.13-0.4-3.42,0.25-3.67,1.29
					c-0.26,1.04,1.25,1.89,1.8,1.19c0.55-0.7,0.71-1.5,1.94-1.35c1.23,0.15,2.17,1.13,2.17,1.13L285.47,289.4z"/>
				<g>
					<path class="st21" d="M265.78,287.98c0,0,0.68,4.01,6.14,3.41c5.57-0.61,7.37,1.22,12.1,1c3.81-0.18,8.77-5.2,6.86-11.4
						C288.97,274.78,266.7,272.67,265.78,287.98z"/>
					<path class="st25" d="M265.79,287.71c-0.03,0.31,0.01,0.61,0.11,0.9c0.41,1.08,1.79,3.48,6.04,3.01
						c5.57-0.61,7.35,1.02,12.08,0.77c3.81-0.2,8.81-4.78,6.98-10.36C289.17,276.52,267.26,274.33,265.79,287.71z"/>
					<path class="st23" d="M290.99,282.04c-1.92-5.09-21.43-7.09-24.78,3.8c-0.19,0.61-0.33,1.24-0.43,1.87
						c0.3-3.95,2.53-7.12,6.84-8.89c6.34-2.56,14.39-1.03,17.28,1.63C290.4,280.88,290.8,281.43,290.99,282.04z"/>
					<path class="st13" d="M286.45,290.27c0,0,3.51-1.67,3.65-4.59c0.14-2.92-2.53-5.4-4.8-5.9c-2.27-0.5,0.44,0.63,1.39,4.31
						C287.65,287.77,284.59,290.34,286.45,290.27z"/>
					<path class="st13" d="M268.38,287.84c-1.04-0.03-1.82-0.92-1.67-1.91c0.13-0.81,0.64-1.83,2-2.99
						c3.29-2.79,13.09-5.13,13.93-3.07c0.84,2.06-4.37,2.6-5.09,5.6C276.99,287.8,271.04,287.91,268.38,287.84z"/>
					<path class="st31" d="M268.67,289.04c-0.61,0.12-0.88,0.81-0.52,1.28c0.44,0.57,1.28,1.13,2.81,0.96
						c2.96-0.32,6.31-0.08,9.01,0.23c2.7,0.31,4.84,0.35,4.74-0.52c-0.09-0.87-5.17-2.2-6.24-2.93
						C277.47,287.37,271.16,288.55,268.67,289.04z"/>
				</g>
				<g>
					<path class="st10" d="M250.66,288.2c0,0,0,3.28,3.78,4.1c3.78,0.82,9.98-1,10.6-1.67c0.51-0.56,0.51-1.16,0.43-1.82
						c-0.07-0.57-0.25-0.23-2.63-0.94c-2.38-0.7-2.68-0.1-4.99-1.17C255.54,285.62,250.76,285.99,250.66,288.2z"/>
					<path class="st25" d="M264.17,289.92c0.51-0.14,0.92-0.44,1.16-0.83c0,0,0,0,0-0.01c0.32-0.51,0.25-1.17-2.14-1.88
						c-2.38-0.7-2.87-0.44-5.17-1.51c-2.31-1.07-7.3,0.24-7.4,2.45c0,0,0,0.17,0.06,0.33c0.63,0.98,1.76,1.95,3.79,2.34
						C257.27,291.37,261.26,290.71,264.17,289.92z"/>
					<path class="st32" d="M251.46,288.92c-0.41-0.45-0.45-1.06-0.09-1.54c1.09-1.46,4.7-2.23,6.46-1.41
						c1.49,0.69,2.25,0.85,3.2,1.04c0.96,0.2,4.82,0.84,3.96,2.14c-0.47,0.7-2.08,0.78-2.93,0.96c-0.83,0.18-1.68,0.32-2.53,0.43
						c-0.85,0.11-1.9,0.29-2.75,0.19C256.18,290.64,253.22,290.88,251.46,288.92z"/>
					<path class="st24" d="M258.2,286.46c1.71,0.23,2.94,1.19,2.74,2.14c-0.2,0.95-1.75,1.53-3.46,1.3
						c-1.71-0.23-2.94-1.19-2.74-2.14C254.94,286.81,256.49,286.23,258.2,286.46z"/>
				</g>
			</g>
			<g>
				<path class="st4" d="M283.16,285.26c-0.78-0.33-1.13-0.92-0.51-1.51c0.78-0.8,2.43-0.63,3.13,0.35c0.53,0.73,0.4,1.8-0.05,2.52
					c-0.23,0.38-0.57,0.7-0.97,0.92c-0.45,0.27-1.06,0.4-1.26,0.39l0.1,0.43c0.25-0.05,0.49-0.12,0.72-0.21
					c0.8-0.33,1.36-0.82,1.7-1.39c0-0.01,0.99-1.56,0.11-2.87c-0.93-1.4-3.33-1.5-4.2-0.14c-0.54,0.83,0.03,1.71,0.96,2.12
					L283.16,285.26z"/>
				<path class="st10" d="M266.88,287.87c0-1.98,2.24-3.59,5.01-3.59c2.01,0,3.75,0.85,4.54,2.08c4.13,0.17,7.32,1.24,7.32,2.54
					c0,0.61-0.65,1.03-1.16,1.3c-0.94,0.49-2.03,0.74-3.08,0.93c-1.31,0.23-2.64,0.38-3.97,0.46c-1.28,0.08-2.59,0.14-3.87,0.04
					c-1.02-0.08-2.03-0.31-2.93-0.78c-0.74-0.39-1.35-0.98-1.65-1.73C266.94,288.72,266.88,288.29,266.88,287.87z"/>
				<path class="st25" d="M281.55,288.08c0,0-5.69-0.44-6.24-0.61c-0.55-0.18-0.41-1.34-2.53-1.75c-2.13-0.4-3.42,0.25-3.67,1.29
					c-0.26,1.04,1.25,1.89,1.8,1.19c0.55-0.7,0.71-1.5,1.94-1.35c1.23,0.15,2.17,1.13,2.17,1.13L281.55,288.08z"/>
				<path class="st4" d="M281.08,287.86l0.6,0.29l-0.48,0.4l0.66,0.2l-0.64,0.41l-0.02,0.01l0.71,0.38l-0.58,0.45l0.71,0.3
					l-0.09,0.43c1.95-0.24,2.33-1.65,2.33-1.65c0.03-0.18,0.04-0.35,0.02-0.51c-0.19-1.77-3.27-1.71-3.27-1.71l0.47,0.28l-0.31,0.09
					l0.38,0.29L281.08,287.86z"/>
			</g>
			<g>
				<path class="st21" d="M254.71,288.4c-0.11,1.82-2.5,3.54-4.92,3.54c-2.42,0-4.72-1.81-4.72-3.63c0-2.62,1.36-2.61,3.08-2.47
					c0.33,0.03,0.67,0.06,1.02,0.08c0.21,0.01,0.41,0.02,0.62,0.02c0.22,0,0.43-0.01,0.65-0.03c0.26-0.02,0.53-0.05,0.79-0.07
					C253.16,285.63,254.88,285.39,254.71,288.4z"/>
				<g>
					<path class="st29" d="M248.54,283.31c0,0,0,0,0.02,0l0-0.01C248.55,283.3,248.54,283.31,248.54,283.31z"/>
					<path class="st4" d="M252.16,284.71c-0.24-0.24-0.47,0-0.47,0c0.33,0,0.18,0.39-0.1,0.67c-0.17,0.17-1.41,0.11-1.84,0.02
						c-0.03-0.01-0.05-0.01-0.08-0.01c0.31-0.93-0.08-3.05-1.31-2.68l0.21,0.58c0.03-0.02,0.08-0.04,0.13-0.04
						c0.52-0.06,0.96,1.41,0.82,2.13c-0.75-0.02-2.06,0.39-2.2,0.15c-0.18-0.3,0.27-0.37,0.27-0.37l0.39,0.11
						c0,0-0.38-0.56-0.76-0.42c-0.62,0.22-0.48,0.8-0.33,0.95c0.12,0.12,1.28,0.12,1.85,0.12c-0.2,0.07-0.83,0.39-1.15,0.89
						c-0.37,0.58,0.39,1.39,0.39,1.39s-0.41-0.8,0.03-1.25c0.35-0.35,1.06-0.78,1.35-0.96l0.04,2.01c0,0,0.44-0.39,0.44-1.16
						c0-0.51-0.08-0.78-0.13-0.92l0.41,0.03c0.24,0.07,0.62,0.21,0.92,0.39c0.46,0.28-0.23,1.03-0.23,1.03s0.35-0.12,0.54-0.47
						c0.37-0.68-0.04-0.86-0.38-1c0.26-0.03,0.51-0.02,0.87-0.08C252.46,285.73,252.39,284.95,252.16,284.71z"/>
				</g>
			</g>
			<path class="st19" d="M291.4,293.62h-55.48c-1.88,0-3.4-1.52-3.4-3.4l0,0h62.28l0,0C294.8,292.1,293.28,293.62,291.4,293.62z"/>
			<path class="st4" d="M229.39,293.52h-24.11c-0.82,0-1.48-1-1.48-2.24l0,0h27.07l0,0C230.87,292.52,230.21,293.52,229.39,293.52z"
				/>
			<g>
				<path class="st22" d="M141.71,281.15c-0.1,0.8,0.27,1.51,0.83,1.59c0.56,0.07,1.1-0.52,1.21-1.32c0.1-0.8-0.27-1.51-0.83-1.59
					C142.35,279.75,141.81,280.34,141.71,281.15z M143.36,280.64c-0.02,0.19-0.29,0.3-0.59,0.27c-0.3-0.04-0.53-0.22-0.5-0.41
					c0.02-0.19,0.29-0.3,0.59-0.27C143.16,280.28,143.39,280.46,143.36,280.64z M141.9,281.57c0.04-0.29,0.41-0.47,0.84-0.42
					c0.43,0.06,0.74,0.33,0.7,0.62c-0.04,0.29-0.41,0.47-0.84,0.42C142.18,282.13,141.87,281.85,141.9,281.57z"/>
				<path class="st33" d="M144.8,283.34c0.15,0.49,0.2,1.01,0.13,1.52l-1.38,10.64c-0.08,0.64-0.68,1.09-1.33,1.01l-6.08-0.79
					c-0.65-0.08-1.11-0.67-1.02-1.32l1.38-10.64c0.07-0.51,0.24-1,0.52-1.43L144.8,283.34z"/>
				<path class="st33" d="M144.8,283.34c0.15,0.49,0.2,1.01,0.13,1.52l-1.38,10.64c-0.08,0.64-0.68,1.09-1.33,1.01l-6.08-0.79
					c-0.65-0.08-1.11-0.67-1.02-1.32l1.38-10.64c0.07-0.51,0.24-1,0.52-1.43L144.8,283.34z"/>
				<path class="st25" d="M136.5,283.76l-1.38,10.64c-0.08,0.64,0.38,1.23,1.02,1.32l6.08,0.79c0.65,0.08,1.24-0.37,1.33-1.01
					l1.38-10.64c0.07-0.51,0.02-1.02-0.13-1.51l-7.78-1.01C136.75,282.76,136.57,283.25,136.5,283.76z"/>
				<path class="st24" d="M141.94,295.28l1.38-10.64c0.07-0.51,0.02-1.02-0.13-1.52l1.61,0.21c0.15,0.49,0.2,1.01,0.13,1.52
					l-1.38,10.64c-0.08,0.64-0.68,1.09-1.33,1.01l-1.61-0.21C141.26,296.38,141.86,295.92,141.94,295.28z"/>
				<path class="st24" d="M136.5,283.76l-1.38,10.64c-0.08,0.64,0.38,1.23,1.02,1.32l2.49,0.32c-0.66-0.09-1.12-0.68-1.04-1.32
					l1.38-10.64c0.07-0.51,0.24-1,0.52-1.43l-2.48-0.32C136.75,282.76,136.57,283.25,136.5,283.76z"/>
				<path class="st2" d="M137.02,282.33l7.78,1.01l0,0c0.04-0.34-0.2-0.65-0.54-0.7l-6.54-0.85
					C137.38,281.75,137.06,281.99,137.02,282.33L137.02,282.33z"/>
				
					<rect x="138.86" y="289.25" transform="matrix(0.1289 -0.9917 0.9917 0.1289 -169.5113 394.0446)" class="st2" width="1.33" height="8.5"/>
			</g>
			<g>
				<g>
					<path class="st10" d="M394.28,369.69c-0.5,0-0.96-0.35-1.06-0.87l-16.25-79.76c-0.12-0.59,0.26-1.16,0.85-1.28
						c0.59-0.12,1.16,0.26,1.28,0.85l16.25,79.76c0.12,0.59-0.26,1.16-0.85,1.28C394.42,369.68,394.35,369.69,394.28,369.69z"/>
				</g>
				<g>
					<path class="st10" d="M335.98,369.69c-0.08,0-0.16-0.01-0.24-0.03c-0.58-0.13-0.95-0.71-0.82-1.29l18.39-82.16
						c0.13-0.58,0.71-0.95,1.29-0.82c0.58,0.13,0.95,0.71,0.82,1.29l-18.39,82.16C336.92,369.34,336.48,369.69,335.98,369.69z"/>
				</g>
				<path class="st17" d="M332.42,260.49c0.14,18.5,15.18,33.46,33.71,33.46s33.57-14.96,33.71-33.46H332.42z"/>
				<path class="st16" d="M394.3,260.49c-2.57,16.07-15.73,26.25-32.52,26.25c-8.01,0-16.13-0.69-21.91-5.36
					c6.18,7.66,15.64,12.57,26.25,12.57c18.53,0,33.57-14.96,33.71-33.46H394.3z"/>
				<path class="st16" d="M399.84,262.66h-68.89v-0.76c0-0.92,0.75-1.67,1.67-1.67h67.22V262.66z"/>
				<path class="st25" d="M403.07,260.59c-0.37,1.78-2.11,2.93-3.9,2.56c-1.78-0.37-2.93-2.11-2.56-3.9
					c0.37-1.78,2.11-2.93,3.9-2.56C402.29,257.06,403.44,258.81,403.07,260.59z"/>
				<path class="st10" d="M401.94,260.36c-0.24,1.16-1.38,1.91-2.54,1.67c-1.16-0.24-1.91-1.38-1.67-2.54
					c0.24-1.16,1.38-1.91,2.54-1.67C401.44,258.06,402.18,259.2,401.94,260.36z"/>
				<rect x="345.17" y="324.56" class="st10" width="40.98" height="4.16"/>
				<path class="st34" d="M369.04,257.33h-27.73c-0.79,0-1.44-0.64-1.44-1.44v-1.3c0-0.79,0.64-1.44,1.44-1.44h27.73
					c0.79,0,1.44,0.64,1.44,1.44v1.3C370.47,256.69,369.83,257.33,369.04,257.33z"/>
				<path class="st21" d="M369.04,257.33h-19.89c-0.79,0-1.44-0.64-1.44-1.44v-1.3c0-0.79,0.64-1.44,1.44-1.44h19.89
					c0.79,0,1.44,0.64,1.44,1.44v1.3C370.47,256.69,369.83,257.33,369.04,257.33z"/>
				<path class="st21" d="M389.88,257.22h-14.87c-0.77,0-1.4-0.62-1.4-1.4v-1.27c0-0.77,0.62-1.4,1.4-1.4h14.87
					c0.77,0,1.4,0.62,1.4,1.4v1.26C391.28,256.59,390.65,257.22,389.88,257.22z"/>
				<path class="st10" d="M394.31,260.24h-56.92c-0.58,0-1.05-0.47-1.05-1.05v-0.96c0-0.58,0.47-1.05,1.05-1.05h56.92
					c0.58,0,1.05,0.47,1.05,1.05v0.96C395.36,259.76,394.89,260.24,394.31,260.24z"/>
			</g>
			<g>
				<path class="st10" d="M439.09,195.13c0.81-0.1,1.62-0.24,2.42-0.44c0.9-0.23,2.05-0.47,2.75-0.44c1.46,0.07,3.85,0.71,4.89,2.43
					c1.3,2.15,4.56,1.27,2.03,10.62c-2.86,10.58-8.58,8.19-8.69,7.98c-0.11-0.21-3.92-7.94-3.92-7.94s-2.62,3.59-2.59,3.44
					C436.01,210.65,429.31,196.35,439.09,195.13z"/>
				<path class="st12" d="M394.09,213c0.33-0.72,3.39,1.37,4.06,0.95c0.67-0.41-2.77-3.78-2.43-4.39c0.62-1.11,3.99,3.46,4.3,2.97
					c0.32-0.49-2.92-5.37-1.79-5.66c1.13-0.29,2.83,5.41,3.4,5.04c0.58-0.38-2.06-5.16-0.97-6.15c0.58-0.53,3.46,8.74,4.47,9.11
					c1.01,0.37,2.08-3.71,3.03-3.56c0.95,0.15-2.99,7.52-2.79,8.08c0.2,0.57,3.96,13.24,6.19,16.82c1.3-0.64,8.9-3.42,10.11-4.05
					c0.53,2.76,2.2,4.86,2.88,7.57c-4.21,1.92-15.77,5.48-17.01,5.04c-3.76-1.33-5.85-19.47-6.49-22.86
					c-0.65-3.39-2.26-4.03-3.19-5.8C396.92,214.36,393.76,213.73,394.09,213z"/>
				<path class="st16" d="M418.17,244.12c0,0,16.31-4.74,20.36-8.16c4.05-3.42,4.83-11.32,0.97-14
					c-3.86-2.68-24.31,11.19-24.31,11.19L418.17,244.12z"/>
				<path class="st12" d="M423.75,357.67c0,0,0.32,5.83,0.33,5.84c0.12,0.74,0.59,2.57,0.59,3.24c0,2.53-11.05-2.15-8.57-3.27
					c0.22-0.1,1.4-0.87,1.47-1.73c0.11-1.33,0.4-4.01,0.4-4.01L423.75,357.67z"/>
				<path class="st10" d="M416.12,363.46c0,0,2.59,0.77,3.92,0.97c1.33,0.19,3.08-1.44,4.02-1c1.03,0.48,0.93,5.25,0.93,5.25
					s-13.84,0.83-17.76-0.45C405.69,367.73,410.82,365.27,416.12,363.46z"/>
				<path class="st12" d="M448.09,358.23c0,0,0.32,5.83,0.33,5.84c0.12,0.74,0.59,2.57,0.59,3.24c0,2.53-11.05-2.15-8.57-3.27
					c0.22-0.1,1.75-1.44,1.82-2.3c0.11-1.33,0.05-3.44,0.05-3.44L448.09,358.23z"/>
				<path class="st10" d="M440.46,364.02c0,0,2.59,0.77,3.92,0.97c1.33,0.19,3.08-1.44,4.02-1c1.03,0.48,1.08,4.84,1.08,4.84
					s-14.8,1.09-18.28,0.07C429.63,368.44,435.16,365.83,440.46,364.02z"/>
				<path class="st10" d="M430.58,274.03l-4.67,2.05l-9.82,47.79l0.4,35.83l7.88,0.19c0,0,3.66-31.34,3.66-33.77
					c0-2.43,16.97-42.5,16.97-42.5L430.58,274.03z"/>
				<path class="st13" d="M434.19,276.66c0,0,3.44,36.82,3.44,43.03c0,6.21,2.79,40.94,2.79,40.94l7.89-0.05
					c0,0,0.57-10.59,1.42-26.17c0.13-2.44-0.17-7.36,0-9.89c1.23-18.16,3.66-35.26,2.5-42.04c-0.19-1.09-0.54-3.94-1.22-4.66
					C445.83,272.38,434.19,276.66,434.19,276.66z"/>
				<path class="st17" d="M447.19,221.6c0,0,5.45,0.77,6.88,1.84c1.61,1.21,3.41,3.91,3.41,3.91s-6.69,32.2-6.7,37.62
					c-0.01,4.19,1.45,14.49,1.45,14.49s-20.21,1.3-27.86-1.78c0,0,2.42-12.24,2.42-15.46c0-3.21,2.89-32.45,3.55-34.49
					c0.6-1.85,1.69-5.18,5.38-6C439.4,220.91,447.19,221.6,447.19,221.6z"/>
				<path class="st12" d="M445.7,212.93l1.35,8.99c0,0-4.92,10.71-7.86,9.78c-2.47-0.78-0.95-10.25-0.95-10.25
					c0.04-0.24,1.39-5.4,0.94-7.63C438.67,211.28,445.7,212.93,445.7,212.93z"/>
				<path class="st20" d="M439.18,213.81c-0.4-2.55,6.52-0.88,6.52-0.88l0.11,0.75l0.21,1.38c0,0-2.35,5.57-7.42,4.79
					C438.81,218.47,439.34,214.85,439.18,213.81z"/>
				<g>
					<path class="st10" d="M427.37,265.19L427.37,265.19c-0.63,0.04-1.19-0.39-1.32-1l-6.91-31.26c0.02-0.01,0.26-0.02,0.28-0.03
						l9.11,30.65C428.76,264.33,428.2,265.14,427.37,265.19z"/>
					<path class="st10" d="M419.53,225.56c0,0,1.1,7.41-0.22,7.56c-1.31,0.15-3.02-7.85-3.02-7.85s1.99,6.05,2.72,5.97
						C419.74,231.16,419.53,225.56,419.53,225.56z"/>
					<path class="st21" d="M424.15,222.08c1.46,0.55,1.99,2.38,0.98,3.56c-0.4,0.47-1.02,0.82-1.96,0.85
						c-3.02,0.09-6.89,1.09-8.8,3.31c-1.9,2.22-5.44-0.44-2.83-3.4C413.86,223.79,419.62,220.37,424.15,222.08z"/>
				</g>
				<path class="st2" d="M418.04,305.78l20.14,3.96c3.65,0.72,7.11-1.92,7.45-5.69l2.67-31.25l-22.58-2.56L418.04,305.78z"/>
				<path class="st2" d="M451.77,271.8l0.54,2.19l-8.96,1.07c0,0-1.17-2.94-0.44-2.86c0.73,0.08,5.38,0.61,5.38,0.61L451.77,271.8z"
					/>
				<path class="st12" d="M421.73,256.68c0.16-0.12,0.15-0.21,0.15-0.21c-0.2-0.28-0.13-1.28,0.21-1.49c0.34-0.21,2.05-0.3,2.21-0.4
					c0.16-0.09,0.44-0.3,0.68-0.32c0.25-0.02,2.04-0.72,2.39-0.74c0.35-0.02,1.49,0.56,2.18,0.72c0.69,0.16,1.74,0.92,2.04,1.11
					c0.23,0.14,4.93-0.1,6.14-0.15c1.32-0.05,2.34-0.17,2.34-0.17s7.74-1.14,15.8-1.73l-1.44-6.64l7.6-0.88
					c0.51,3.77,1.87,9.61,1.93,11.39c0.12,3.5-11.81,3.14-22.36,2.65h0c-1.16-0.05-2.26-0.11-3.25-0.17
					c-1.36-0.02-3.64,0.12-4.69,0.18l0,0c-0.66,0.09-1.56,0.23-1.68,0.29c-0.18,0.09-1.39,0.32-1.49,0.33
					c-0.1,0.01-0.52,0.24-0.7,0.34c-0.18,0.09-2.6,0.17-2.99,0.2c-0.39,0.03-1.26-0.21-1.26-0.21l-1.62-0.02
					c-1.19-0.01-0.79-1.22-0.79-1.22c-0.56-0.01-0.84-0.22-0.92-0.54c-0.08-0.32,0.03-0.69,0.01-0.75c-0.02-0.06-0.19-0.1-0.19-0.1
					c-0.36,0.01-0.6-0.41-0.64-0.67C421.36,257.25,421.56,256.8,421.73,256.68z"/>
				<path class="st17" d="M453.06,222.93c0,0,3.19,0.75,6.48,4.52c3,3.43,4.88,22.64,4.88,22.64l-10.35,1.7l-0.83-9.29l-2.76-4.25
					L453.06,222.93z"/>
				<path class="st12" d="M443.33,199c-3.04-1.15-6.37,0.8-6.94,3.97c-0.25,1.37-0.48,3.1-0.57,5c-0.22,4.56,2,9.07,4.07,9.13
					c2.07,0.06,7.86-2.73,8.26-9.2C448.41,203.9,446.52,200.2,443.33,199z"/>
				<path class="st12" d="M446.62,208.36c-0.03,1.01,0.61,1.84,1.43,1.87s1.51-0.77,1.54-1.78c0.03-1.01-0.61-1.84-1.43-1.87
					C447.34,206.56,446.65,207.35,446.62,208.36z"/>
				<path class="st10" d="M448.16,206.58c0,0-2.53,0.11-3.11-1.63c-0.58-1.73-3.1-5.74-7.45-5.18c-4.35,0.56,4.27-2.64,4.59-2.58
					c0.33,0.07,4.24,0.84,4.24,0.84s2.51,3.09,2.56,3.39c0.05,0.29,0.32,3.44,0.32,3.44L448.16,206.58z"/>
				<path class="st15" d="M438.08,211.87l3.66,0.36c0,0-0.22,1.38-1.83,1.27C437.94,213.36,438.08,211.87,438.08,211.87z"/>
			</g>
			<path class="st18" d="M132.06,289.28c0.3-0.19,0.66-0.87,2.97-2.45c0.67-0.46,1.81-0.52,1.81-0.52s1.41-0.07,1.52,0.26
				c0.11,0.33-0.12,0.71-0.37,0.83c-0.25,0.12-0.81,0.07-1.06,0.19c-0.25,0.12-0.58,0.94-0.58,1.26c-0.01,0.32,4.14-0.03,4.14-0.03
				s1.18-0.16,1.57-0.24c0.33-0.07,1.31-0.37,1.31-0.37s1.41-0.34,1.49,0.11c0.05,0.27-1.13,0.93-2.36,1.38
				c-1.32,0.48-2.71,0.74-2.7,0.89c0.02,0.34,2.3,0.2,2.3,0.2s1.06-0.32,1.55-0.3c0.62-0.31,1.75-0.5,1.8,0.06
				c0.01,0.1-1.45,0.82-1.45,0.82s-1.01,0.27-1.49,0.43c-0.84,0.28-2.14,0.31-2.72,0.45c-0.48,0.12-0.3,0.24-0.32,0.29
				c-0.02,0.04,0.64-0.02,1.55-0.09c0.46-0.03,0.98,0.03,1.5-0.09c0.49-0.12,1.18-0.17,1.59-0.2c1.18-0.07,1.01,0.7-0.08,0.95
				c-0.41,0.09-0.87,0.19-1.33,0.29c-1.78,0.39-3.48,0.34-3.5,0.54c-0.03,0.26,3.06,0.14,3.06,0.14s1.68,0.43,0.07,0.79
				c-1.87,0.42-3.36,0.35-3.43,0.34c-0.45-0.05-2.07,0.26-3.59-0.16c-1.12-0.31-2.72-0.81-3.48-1.04L132.06,289.28z"/>
			<path class="st24" d="M136.24,285.78l-0.41,3.14c0,0,1.71,0.21,2.52,0.04l0.2-1.56l-0.15-1.28l-0.56-0.73L136.24,285.78z"/>
			<g>
				<path class="st12" d="M466.86,361.18c0,0,0.25,4.1,0.25,4.11c0.09,0.52,0.45,1.81,0.45,2.28c0,1.78-8.44-1.51-6.55-2.3
					c0.17-0.07,1.07-0.61,1.12-1.22c0.09-0.93,0.31-2.82,0.31-2.82L466.86,361.18z"/>
				<path class="st10" d="M461.03,365.26c0,0,1.98,0.54,3,0.68c1.01,0.14,2.35-1.01,3.07-0.7c0.79,0.34,0.76,3.4,0.76,3.4
					s-10.63,0.87-13.62-0.03C453.06,368.25,456.98,366.52,461.03,365.26z"/>
				<path class="st10" d="M480.82,296.18c0,0,0.93,6.23-0.23,8.96c-1.17,2.73-10,29.53-10.12,31.72
					c-0.12,2.19-3.05,26.34-3.05,26.34l-6.14-0.17l-1.33-26.85l2.78-33.75l2.7-8.53L480.82,296.18z"/>
				<path class="st12" d="M484.13,361.18c0,0,0.25,4.1,0.25,4.11c0.09,0.52,0.45,1.81,0.45,2.28c0,1.78-8.44-1.51-6.55-2.3
					c0.17-0.07,1.33-1.01,1.39-1.62c0.09-0.93,0.04-2.42,0.04-2.42L484.13,361.18z"/>
				<path class="st10" d="M478.3,365.26c0,0,1.98,0.54,3,0.68c1.01,0.14,2.35-1.01,3.07-0.7c0.79,0.34,0.82,3.4,0.82,3.4
					s-10.68,1.02-13.68-0.03C470.35,368.2,474.25,366.52,478.3,365.26z"/>
				<path class="st13" d="M482.22,296.51c0,0,1.43,6.92,0.85,12.16c-0.58,5.24-0.63,23.87-0.63,23.87l2.22,29.81l-5.28,0.11
					c0,0-8.84-30.94-8.73-30.18c0.12,0.76-2.1-20.98-2.1-20.98l10.05-15.46L482.22,296.51z"/>
				<path class="st12" d="M441.04,293.36c-0.17-0.51,2.32-0.91,2.45-1.42c0.14-0.52-3.14-0.58-3.25-1.04
					c-0.21-0.84,3.59-0.15,3.52-0.54c-0.07-0.39-3.95-1.3-3.53-1.97c0.43-0.67,3.93,1.36,4.04,0.9c0.11-0.46-3.43-1.59-3.35-2.59
					c0.04-0.53,5.8,2.71,6.47,2.43c0.67-0.29-0.7-2.81-0.16-3.18c0.54-0.37,2.11,4.76,2.48,4.95c0.37,0.19,8.38,3.62,11.16,4.35
					c0.35-0.93,3.05-5.95,3.36-6.83c1.55,1.12,3.79,0.23,5.39,1.26c-1.19,2.91-4.62,11.62-5.44,11.98
					c-2.48,1.1-13.62-5.76-15.52-7.13c-1.9-1.38-3-0.94-4.29-1.38C443.07,292.71,441.21,293.87,441.04,293.36z"/>
				<path class="st19" d="M461.73,291.8l7.59,1.17c0,0,0.67-6.24,0.83-9.22c0.19-3.62,0.12-8.3-0.32-8.22
					c-1.24,0.22-2.93,0.81-3.98,2.11C462.2,282.14,461.73,291.8,461.73,291.8z"/>
				<path class="st2" d="M466.23,282.93c-0.22,1.1-5.57,28.75-5.57,28.75c13.55,7.43,23.52,3.89,23.52,3.89s-0.52-20.48,0.18-23.32
					c0.46-1.88,2.13-14.26,0.91-14.67c-1.55-0.53-3.91-1.32-5.87-1.63c-1.67-0.26-8.21-0.7-9.4-0.37
					C470,275.59,467.14,278.32,466.23,282.93z"/>
				<path class="st21" d="M477.14,253.02c0,0-5.02-2.2-6.36,2.16c0,0-4.37-0.12-3.29,4.32c0,0-4.2,2.52-1.02,7.97
					c0,0-0.82,5.41,5.43,5.29c0,0,1.07,1.82,3.88,1.17c2.81-0.65,3.48-1.45,3.48-1.45s5.15,1.1,6.34-3.56c0,0,3.4-1.08,0.75-5.36
					c0,0,2.6-5.99-2.85-7.32C483.48,256.24,482.42,250.4,477.14,253.02z"/>
				<path class="st12" d="M480.91,266.2c-0.31,1.12,0.05,2.21,0.81,2.42c0.76,0.21,1.63-0.53,1.94-1.65
					c0.31-1.12-0.05-2.21-0.81-2.42C482.09,264.33,481.22,265.07,480.91,266.2z"/>
				<path class="st12" d="M467.68,264.47c0.03,1.17,0.7,2.1,1.48,2.07c0.79-0.02,1.4-0.98,1.37-2.15c-0.03-1.17-0.7-2.1-1.48-2.07
					C468.26,262.35,467.65,263.31,467.68,264.47z"/>
				<path class="st12" d="M473.41,271.62c0.01,0.08-0.46,3.06-0.71,4.64c-0.09,0.59,0.24,1.16,0.8,1.36
					c1.49,0.55,4.4,1.26,6.23-0.66c0.17-0.17,0.25-0.42,0.22-0.66l-0.76-6.98L473.41,271.62z"/>
				<path class="st31" d="M473.16,273.29c1.58,0.66,3.51,0.53,5.57-0.89c0.26-0.18,0.51-0.37,0.73-0.57l-0.27-2.5l-5.79,2.29
					C473.41,271.66,473.3,272.38,473.16,273.29z"/>
				<path class="st12" d="M476.54,256.61c0,0,2.43,0.45,4,2.66c1.57,2.21,2.84,8.85-1.94,12.14c-4.78,3.3-8.74-0.97-8.97-5.26
					C469.41,261.86,470.91,256.24,476.54,256.61z"/>
				<path class="st15" d="M471.96,268.08l4.97,0.04c0,0-0.13,1.89-2.31,1.93C471.95,270.11,471.96,268.08,471.96,268.08z"/>
				<path class="st21" d="M471.68,257.55c0,0,2.64-0.25,4.18,0.58c1.54,0.83,5.17,6.83,6.2,6.51c1.03-0.32,1.46-4.09,1.06-4.83
					c-0.4-0.74-2.21-3.23-2.4-3.34c-0.2-0.11-2.41-1-2.83-1.06c-0.42-0.06-3.68,0.09-3.68,0.09L471.68,257.55z"/>
				<path class="st12" d="M469.65,308.23c-0.46-0.28,1.2-2.18,0.97-2.66c-0.23-0.48-2.78,1.56-3.16,1.29
					c-0.7-0.51,2.66-2.41,2.35-2.67c-0.31-0.25-3.87,1.54-3.97,0.75c-0.1-0.79,3.89-1.47,3.68-1.89c-0.21-0.42-3.65,0.97-4.24,0.16
					c-0.31-0.43,6.19-1.63,6.52-2.28c0.33-0.65-2.34-1.71-2.16-2.33c0.18-0.63,4.67,2.3,5.07,2.21c0.4-0.09,8.76-2.59,11.36-3.81
					c-0.33-0.93-1.47-6.52-1.8-7.39c1.91-0.13,3.06-2.25,4.94-2.49c0.95,3,3.9,11.88,3.5,12.68c-1.2,2.44-14.15,4.31-16.48,4.47
					c-2.34,0.16-2.91,1.2-4.18,1.69C470.79,306.42,470.11,308.51,469.65,308.23z"/>
				<path class="st19" d="M491.71,292.43l-8.74,4.23c0,0-1.37-6.42-2.4-10.39c-0.88-3.41,3.48-9.49,4.93-8.66
					C488.74,279.47,491.71,292.43,491.71,292.43z"/>
			</g>
			<path class="st4" d="M12.78,368.16c0.19,0.17,0.39,0.35,0.58,0.52c0.24,0.21,0.47,0.42,0.71,0.63c1.25,1.11,2.5,2.21,3.77,3.3
				h536.17v-4.46H12.78z"/>
			<path class="st15" d="M395.15,208.95l4.6-0.03c0,0-0.66,1.52-2.07,1.47C396.91,210.36,395.83,210.52,395.15,208.95z"/>
		</g>
	</g>
</g>
<g id="Layer_1">
</g>
</svg>
