<?xml version="1.0" encoding="utf-8"?>
<!-- Generator: Adobe Illustrator 23.0.1, SVG Export Plug-In . SVG Version: 6.00 Build 0)  -->
<svg version="1.1" xmlns="http://www.w3.org/2000/svg" xmlns:xlink="http://www.w3.org/1999/xlink" x="0px" y="0px"
	 viewBox="0 0 500 500" style="enable-background:new 0 0 500 500;" xml:space="preserve">
<style type="text/css">
	.st0{fill:#344E41;}
	.st1{fill:#DAD7CD;}
	.st2{fill:#A3B18A;}
	.st3{fill:#588157;}
	.st4{fill:#3A5A40;}
</style>
<g id="Layer_1">
</g>
<g id="Layer_3">
</g>
<g id="Layer_2">
	<g>
		<g>
			<g>
				<path class="st0" d="M165.79,196.09c1.47-96.3,2.53-145.86,3.17-148.71c0.63-2.84,2.53-4.27,5.7-4.27h63.64
					c1.69,0,2.53-1.01,2.53-3.05V29.4c0-1.62-1.06-2.44-3.17-2.44H66.37c-2.53,0-3.8,1.22-3.8,3.66v8.84c0,2.44,1.47,3.66,4.43,3.66
					h35.78c8.23,0,12.35,21.64,12.35,64.91c0,3.86-0.43,44.8-1.27,122.81c-0.14,12.71-0.26,24.67-0.35,35.91l52.02-52.02
					C165.62,208.69,165.7,202.5,165.79,196.09z"/>
				<path class="st0" d="M386.8,413.23c-1.06,0-4.12,1.52-9.18,4.57c-20.06,11.78-46.55,19-79.47,21.63
					c-10.13,0.82-49.29,1.22-117.47,1.22c-11.19,0-16.78-23.47-16.78-70.39c0-11.7,0.55-57.11,1.64-136.18l-52.02,52.02
					c-0.51,57.77-0.49,96.2,0.04,115.24c0.63,22.75,0.95,35.04,0.95,36.87c0,4.27-1.9,6.4-5.7,6.4H61.3c-2.11,0-3.17,1.02-3.17,3.05
					v10.05c0,2.03,1.27,3.05,3.8,3.05h301.43c1.9,0,3.69-1.22,5.38-3.66c5.7-9.14,9.39-15.85,11.09-20.11
					c6.75-10.97,10.13-17.37,10.13-19.2C389.97,416.17,388.91,414.65,386.8,413.23z"/>
			</g>
			<g>
				<path class="st0" d="M318.33,244.64v-10.69c0-19.25-15.49-34.86-34.61-34.86h0v45.55H318.33z"/>
				<path class="st0" d="M279.21,199.1L279.21,199.1c-19.11,0-34.61,15.61-34.61,34.86v10.69h34.61V199.1z"/>
				<rect x="244.61" y="248.6" class="st0" width="34.61" height="45.55"/>
				<rect x="283.72" y="248.6" class="st0" width="34.61" height="45.55"/>
			</g>
			<polygon class="st0" points="253.3,66.29 20.03,303.18 86.12,303.18 272.3,114.12 454.63,299.26 482.72,299.26 			"/>
			<path class="st0" d="M373.16,450.73l32.63-58.76c1.14-2.05-1.28-4.23-3.2-2.87c-17.15,12.12-57.73,40.04-78.2,47.78
				c-2.03,0.77-1.82,3.7,0.29,4.19c14.05,3.28,39.44,9.2,46.06,10.74C371.7,452.03,372.68,451.59,373.16,450.73z"/>
		</g>
	</g>
	<rect x="10.76" y="-63.35" class="st1" width="47.37" height="47.37"/>
	<rect x="62.57" y="-63.35" class="st2" width="47.37" height="47.37"/>
	<rect x="115.94" y="-63.35" class="st3" width="47.37" height="47.37"/>
	<rect x="167.75" y="-63.35" class="st4" width="47.37" height="47.37"/>
	<rect x="220.92" y="-63.35" class="st0" width="47.37" height="47.37"/>
</g>
</svg>
