<?xml version="1.0" encoding="utf-8"?>
<!-- Generator: Adobe Illustrator 23.0.1, SVG Export Plug-In . SVG Version: 6.00 Build 0)  -->
<svg version="1.1" xmlns="http://www.w3.org/2000/svg" xmlns:xlink="http://www.w3.org/1999/xlink" x="0px" y="0px"
	 viewBox="0 0 500 500" style="enable-background:new 0 0 500 500;" xml:space="preserve">
<style type="text/css">
	.st0{fill:#DAD7CD;}
	.st1{fill:#A3B18A;}
	.st2{fill:#588157;}
	.st3{fill:#3A5A40;}
	.st4{fill:#344E41;}
</style>
<g id="Layer_2">
	<rect x="10.76" y="-63.35" class="st0" width="47.37" height="47.37"/>
	<rect x="62.57" y="-63.35" class="st1" width="47.37" height="47.37"/>
	<rect x="115.94" y="-63.35" class="st2" width="47.37" height="47.37"/>
	<rect x="167.75" y="-63.35" class="st3" width="47.37" height="47.37"/>
	<rect x="220.92" y="-63.35" class="st4" width="47.37" height="47.37"/>
	<path class="st1" d="M394.09,479.36H105.91c-48.19,0-87.26-39.07-87.26-87.26V103.92c0-48.19,39.07-87.26,87.26-87.26h288.18
		c48.19,0,87.26,39.07,87.26,87.26V392.1C481.35,440.29,442.28,479.36,394.09,479.36z"/>
</g>
<g id="Layer_1">
</g>
<g id="Layer_3">
	<g>
		<g>
			<g>
				<path class="st4" d="M193.61,206.23c1.22-79.55,2.09-120.5,2.62-122.85c0.52-2.35,2.09-3.52,4.71-3.52h52.58
					c1.39,0,2.09-0.84,2.09-2.52v-8.81c0-1.34-0.87-2.01-2.62-2.01H111.48c-2.09,0-3.14,1.01-3.14,3.02v7.3
					c0,2.01,1.22,3.02,3.66,3.02h29.56c6.8,0,10.2,17.87,10.2,53.62c0,3.19-0.35,37.01-1.05,101.45
					c-0.11,10.5-0.21,20.38-0.29,29.67l42.98-42.98C193.47,216.64,193.54,211.53,193.61,206.23z"/>
				<path class="st4" d="M376.19,385.61c-0.87,0-3.4,1.26-7.59,3.78c-16.57,9.74-38.45,15.69-65.66,17.87
					c-8.37,0.67-40.72,1.01-97.05,1.01c-9.24,0-13.86-19.39-13.86-58.15c0-9.67,0.45-47.18,1.36-112.5l-42.98,42.98
					c-0.42,47.72-0.41,79.47,0.03,95.2c0.52,18.8,0.78,28.95,0.78,30.46c0,3.52-1.57,5.29-4.71,5.29h-39.24
					c-1.74,0-2.62,0.84-2.62,2.52v8.31c0,1.68,1.05,2.52,3.14,2.52h249.02c1.57,0,3.05-1.01,4.45-3.02
					c4.71-7.55,7.76-13.09,9.16-16.62c5.58-9.06,8.37-14.35,8.37-15.86C378.81,388.04,377.93,386.79,376.19,385.61z"/>
			</g>
			<g>
				<path class="st4" d="M319.62,246.34v-8.83c0-15.9-12.8-28.8-28.59-28.8h0v37.63H319.62z"/>
				<path class="st4" d="M287.31,208.71L287.31,208.71c-15.79,0-28.59,12.89-28.59,28.8v8.83h28.59V208.71z"/>
				<rect x="258.72" y="249.61" class="st4" width="28.59" height="37.63"/>
				<rect x="291.04" y="249.61" class="st4" width="28.59" height="37.63"/>
			</g>
			<polygon class="st4" points="265.9,99 73.19,294.7 127.8,294.7 281.6,138.51 432.22,291.46 455.43,291.46 			"/>
			<path class="st4" d="M364.92,416.59l26.96-48.54c0.94-1.69-1.06-3.49-2.64-2.37c-14.17,10.01-47.69,33.07-64.6,39.47
				c-1.68,0.63-1.51,3.06,0.24,3.47c11.6,2.71,32.58,7.6,38.05,8.87C363.72,417.67,364.53,417.3,364.92,416.59z"/>
		</g>
	</g>
</g>
</svg>
