<?xml version="1.0" encoding="utf-8"?>
<!-- Generator: Adobe Illustrator 23.0.1, SVG Export Plug-In . SVG Version: 6.00 Build 0)  -->
<svg version="1.1" xmlns="http://www.w3.org/2000/svg" xmlns:xlink="http://www.w3.org/1999/xlink" x="0px" y="0px"
	 viewBox="0 0 500 241.41" style="enable-background:new 0 0 500 241.41;" xml:space="preserve">
<style type="text/css">
	.st0{font-family:'CalifornianFB-Reg';}
	.st1{font-size:124.64px;}
	.st2{font-family:'CalifornianFB-Bold';}
	.st3{font-size:62.4496px;}
</style>
<g id="Layer_1">
</g>
<g id="Layer_3">
</g>
<g id="Layer_2">
	<g>
		<g>
			<g>
				<path d="M71.04,70.78c0.59-38.41,1.01-58.18,1.26-59.32c0.25-1.13,1.01-1.7,2.27-1.7h25.38c0.67,0,1.01-0.4,1.01-1.22V4.29
					c0-0.65-0.42-0.97-1.26-0.97H31.39c-1.01,0-1.52,0.49-1.52,1.46v3.52c0,0.97,0.59,1.46,1.77,1.46h14.27
					c3.28,0,4.93,8.63,4.93,25.89c0,1.54-0.17,17.87-0.5,48.98c-0.05,5.07-0.1,9.84-0.14,14.32l20.75-20.75
					C70.97,75.81,71.01,73.34,71.04,70.78z"/>
				<path d="M159.2,157.39c-0.42,0-1.64,0.61-3.66,1.82c-8,4.7-18.56,7.58-31.7,8.63c-4.04,0.33-19.66,0.49-46.86,0.49
					c-4.46,0-6.69-9.36-6.69-28.08c0-4.67,0.22-22.78,0.65-54.32l-20.75,20.75c-0.2,23.04-0.2,38.37,0.01,45.96
					c0.25,9.08,0.38,13.98,0.38,14.71c0,1.7-0.76,2.55-2.27,2.55H29.37c-0.84,0-1.26,0.41-1.26,1.22v4.01
					c0,0.81,0.51,1.22,1.52,1.22h120.23c0.76,0,1.47-0.49,2.15-1.46c2.27-3.65,3.75-6.32,4.42-8.02c2.69-4.38,4.04-6.93,4.04-7.66
					C160.46,158.56,160.04,157.96,159.2,157.39z"/>
			</g>
			<g>
				<path d="M131.88,90.15v-4.26c0-7.68-6.18-13.9-13.8-13.9h0v18.17H131.88z"/>
				<path d="M116.28,71.98L116.28,71.98c-7.62,0-13.8,6.22-13.8,13.9v4.26h13.8V71.98z"/>
				<rect x="102.48" y="91.73" width="13.8" height="18.17"/>
				<rect x="118.08" y="91.73" width="13.8" height="18.17"/>
			</g>
			<polygon points="105.95,19.01 12.9,113.5 39.27,113.5 113.53,38.09 186.25,111.93 197.45,111.93 			"/>
			<path d="M153.75,172.35l13.01-23.44c0.45-0.82-0.51-1.69-1.28-1.15c-6.84,4.83-23.03,15.97-31.19,19.06
				c-0.81,0.31-0.73,1.48,0.12,1.67c5.6,1.31,15.73,3.67,18.37,4.28C153.17,172.87,153.56,172.69,153.75,172.35z"/>
		</g>
		<text transform="matrix(1 0 0 1 172.9406 176.4762)" class="st0 st1">amkin</text>
		<text transform="matrix(0.9382 0 0 1 172.9414 223.4235)" class="st2 st3">Landscaping</text>
	</g>
</g>
</svg>
